SplineFontDB: 3.2
FontName: unaScript
FullName: Una Script
FamilyName: Una
Weight: Regular
Copyright: Lol, take it, see if I fucking care. - Una Ada
UComments: "2020-7-9: Created with FontForge (http://fontforge.org)"
Version: 001.000
ItalicAngle: 0
UnderlinePosition: -100
UnderlineWidth: 50
Ascent: 800
Descent: 200
InvalidEm: 0
LayerCount: 2
Layer: 0 0 "Back" 1
Layer: 1 0 "Fore" 0
XUID: [1021 809 -1299049482 11933]
OS2Version: 0
OS2_WeightWidthSlopeOnly: 0
OS2_UseTypoMetrics: 1
CreationTime: 1594321298
ModificationTime: 1594485039
OS2TypoAscent: 0
OS2TypoAOffset: 1
OS2TypoDescent: 0
OS2TypoDOffset: 1
OS2TypoLinegap: 0
OS2WinAscent: 0
OS2WinAOffset: 1
OS2WinDescent: 0
OS2WinDOffset: 1
HheadAscent: 0
HheadAOffset: 1
HheadDescent: 0
HheadDOffset: 1
OS2Vendor: 'PfEd'
Lookup: 258 0 0 "'kern' Horizontal Kerning in Latin lookup 0" { "'kern' Horizontal Kerning in Latin lookup 0-1" [150,15,4] } ['kern' ('DFLT' <'dflt' > 'latn' <'dflt' > ) ]
MarkAttachClasses: 1
DEI: 91125
KernClass2: 9 9 "'kern' Horizontal Kerning in Latin lookup 0-1"
 6 zero O
 11 seven F P Y
 1 A
 1 T
 21 a c e m n o r s u v w
 1 q
 7 g j y z
 19 b d f h i k l p t x
 23 comma period underscore
 47 quotedbl quotesingle asterisk asciicircum grave
 11 V backslash
 15 a c e o r u v w
 7 b h i k
 1 j
 3 T Y
 294 exclam numbersign dollar percent ampersand parenleft parenright plus hyphen slash zero one two three four five six seven eight nine colon semicolon less equal greater question at A B C D E F G H I J K L M N O P Q R S U W X Z bracketleft bracketright d f g l m n q s t x braceleft bar braceright

StartChar: exclam
Encoding: 33 33 0
Width: 191
Flags: HW
LayerCount: 2
Fore
SplineSet
100 390 m 0
 77 390 57 408 55 432 c 0
 50 512 35 584 13 636 c 0
 4 658 15 685 38 694 c 0
 61 704 87 693 97 670 c 0
 122 609 139 529 145 438 c 0
 147 414 128 392 103 390 c 0
 102 390 101 390 100 390 c 0
136 236 m 0
 121 236 106 243 98 257 c 2
 89 270 l 2
 76 292 83 319 104 332 c 0
 125 345 153 339 166 318 c 2
 174 304 l 2
 187 283 181 255 160 242 c 0
 152 238 144 236 136 236 c 0
EndSplineSet
EndChar

StartChar: quotedbl
Encoding: 34 34 1
Width: 245
Flags: HW
HStem: 489.795 206.241
VStem: 11.8027 221.997
LayerCount: 2
Fore
SplineSet
81 490 m 0
 58 490 38 508 36 531 c 0
 35 549 27 586 12 640 c 0
 5 664 19 689 42 696 c 0
 66 703 91 689 98 665 c 0
 113 613 123 567 126 538 c 0
 128 514 109 492 85 490 c 0
 83 490 82 490 81 490 c 0
190 505 m 0
 170 505 152 518 147 539 c 0
 145 544 144 550 142 557 c 0
 137 580 127 617 120 633 c 0
 110 656 120 682 143 692 c 0
 166 703 192 693 202 670 c 0
 212 649 220 616 230 578 c 0
 231 572 233 566 234 561 c 0
 240 537 225 512 201 506 c 0
 198 505 194 505 190 505 c 0
EndSplineSet
EndChar

StartChar: numbersign
Encoding: 35 35 2
Width: 421
Flags: HW
HStem: 510.19 89.9697<16.8284 54.9688> 607.67 21G<191.894 195.514> 617.31 21G<304.669 314.839>
LayerCount: 2
Fore
SplineSet
371 533 m 0xc0
 395 536 413 558 411 583 c 0
 408 608 386 626 361 623 c 0
 342 621 324 619 306 617 c 1xa0
 304 639 286 656 264 658 c 0
 239 659 218 640 216 616 c 0
 216 614 216 612 216 609 c 0
 208 609 200 608 192 608 c 1
 192 611 193 615 194 619 c 0
 199 643 183 667 158 672 c 0
 134 677 110 661 106 637 c 0
 103 625 101 613 99 602 c 1
 83 601 68 601 53 600 c 0
 29 599 9 578 10 554 c 0
 11 529 31 510 55 510 c 0
 55 510 56 510 57 510 c 0
 64 510 71 511 79 511 c 1
 76 498 73 486 70 474 c 0
 69 474 69 474 69 474 c 0
 44 479 20 463 16 439 c 0
 11 417 24 395 45 388 c 1
 39 370 33 357 28 348 c 0
 16 326 23 299 45 287 c 0
 52 283 59 281 67 281 c 0
 83 281 98 289 106 303 c 0
 114 318 124 338 136 376 c 1
 148 375 162 374 175 374 c 0
 177 374 178 374 179 375 c 1
 175 354 169 333 164 311 c 0
 158 287 172 263 196 256 c 0
 200 255 204 255 207 255 c 0
 227 255 246 268 251 289 c 0
 259 320 266 351 273 379 c 1
 298 382 325 385 354 389 c 0
 379 393 396 416 392 440 c 0
 388 465 366 482 341 478 c 0
 323 476 306 474 290 472 c 1
 293 490 296 508 298 526 c 1
 322 528 346 531 371 533 c 0xc0
198 465 m 1
 185 464 172 464 160 465 c 1
 164 480 168 497 172 516 c 1
 183 517 195 518 206 519 c 1
 204 501 201 483 198 465 c 1
EndSplineSet
EndChar

StartChar: dollar
Encoding: 36 36 3
Width: 371
Flags: HW
HStem: 276.55 90.8301<41.1962 180.775>
VStem: 175.616 83.1094<183.33 271.749> 181.646 90.0303<208.126 277.48>
LayerCount: 2
Fore
SplineSet
344 336 m 0xa0
 329 316 304 301 270 291 c 1
 272 291 l 1xa0
 273 285 276 248 259 206 c 0
 252 189 235 178 217 178 c 0
 211 178 206 180 200 182 c 0
 177 191 166 218 176 241 c 0xc0
 183 257 182 270 182 272 c 1
 182 271 182 275 182 277 c 1
 181 277 180 277 179 277 c 0
 167 277 155 277 145 277 c 0
 105 277 75 279 73 280 c 0
 49 282 31 304 33 329 c 0
 36 354 58 372 82 369 c 0
 83 369 128 365 177 367 c 0
 250 371 268 386 271 389 c 0
 271 391 271 393 269 397 c 0
 253 437 200 445 133 451 c 0
 108 454 85 456 66 462 c 0
 15 478 10 514 10 530 c 0
 10 548 16 574 44 601 c 0
 58 614 76 627 99 638 c 0
 107 642 116 646 124 649 c 1
 122 652 120 654 118 657 c 2
 92 710 l 2
 81 732 90 759 112 770 c 0
 135 781 162 772 173 750 c 2
 199 697 l 2
 205 686 205 674 201 663 c 1
 213 657 222 647 226 634 c 0
 232 610 218 585 194 578 c 0
 194 578 169 572 143 559 c 0
 131 554 122 548 116 544 c 1
 125 543 134 542 142 541 c 0
 175 538 216 534 253 521 c 0
 302 503 335 473 352 431 c 0
 372 384 355 351 344 336 c 0xa0
EndSplineSet
EndChar

StartChar: percent
Encoding: 37 37 4
Width: 625
Flags: HW
VStem: 330.524 89.9404<329.239 381.392>
LayerCount: 2
Fore
SplineSet
197 280 m 0
 189 280 181 282 174 286 c 0
 152 299 145 327 158 348 c 0
 227 461 283 547 329 610 c 1
 309 610 289 613 268 616 c 1
 259 585 244 556 222 533 c 0
 193 501 156 484 123 487 c 0
 119 487 115 488 112 489 c 0
 76 501 52 517 36 538 c 0
 16 563 12 592 10 615 c 0
 10 618 10 621 10 624 c 0
 16 665 33 696 60 716 c 0
 91 738 131 745 184 737 c 0
 187 736 191 735 195 734 c 0
 280 696 361 690 423 716 c 0
 443 724 466 717 478 700 c 0
 490 682 487 658 472 643 c 0
 421 592 344 480 235 301 c 0
 227 287 212 280 197 280 c 0
100 616 m 0
 102 601 105 596 107 593 c 0
 111 588 120 582 133 577 c 0
 138 579 147 584 157 595 c 0
 164 603 176 618 182 641 c 1
 175 644 169 647 164 649 c 0
 140 652 123 650 114 643 c 0
 107 639 103 629 100 616 c 0
459 235 m 0
 451 235 446 236 443 237 c 0
 442 237 440 238 437 238 c 0
 422 241 397 246 374 263 c 0
 353 278 329 308 331 361 c 0
 332 387 341 412 358 431 c 0
 371 445 387 456 408 464 c 0
 438 477 467 478 470 478 c 1
 471 463 l 1
 496 474 529 468 560 447 c 0
 592 425 623 385 614 340 c 0
 610 320 598 292 558 267 c 0
 541 257 520 248 500 242 c 0
 481 236 468 235 459 235 c 0
468 323 m 1
 468 323 468 323 468 323 c 1
 468 323 468 323 468 323 c 1
459 325 m 1
 459 325 l 1
458 386 m 1
 452 385 446 383 440 380 c 0
 421 372 421 363 420 357 c 0
 420 338 423 333 455 326 c 0
 457 326 460 325 462 325 c 0
 468 326 482 330 498 337 c 0
 515 345 522 352 525 356 c 0
 524 358 520 363 514 368 c 0
 509 373 503 376 499 378 c 0
 485 373 469 376 458 386 c 1
EndSplineSet
EndChar

StartChar: ampersand
Encoding: 38 38 5
Width: 343
Flags: HW
VStem: 144.077 89.1699<165.797 280.69 660.33 745.344>
LayerCount: 2
Fore
SplineSet
306 317 m 0
 276 305 250 296 228 290 c 1
 232 283 235 274 234 264 c 0
 233 258 233 251 233 243 c 0
 233 225 235 204 238 194 c 0
 247 171 234 145 211 137 c 0
 206 135 201 134 196 134 c 0
 177 134 160 146 153 164 c 0
 140 201 143 259 144 270 c 0
 144 274 145 277 146 281 c 1
 131 282 118 286 106 291 c 0
 78 305 58 330 47 365 c 0
 47 366 46 368 46 369 c 0
 40 398 46 427 63 451 c 0
 69 459 75 466 83 472 c 1
 52 486 29 502 18 525 c 0
 8 544 7 565 15 585 c 0
 17 589 19 592 21 595 c 0
 36 616 58 633 85 645 c 0
 102 653 119 658 137 659 c 1
 141 683 141 709 141 709 c 0
 141 734 161 754 186 754 c 2
 186 754 l 2
 211 754 231 733 231 709 c 0
 231 707 231 669 224 635 c 1
 234 627 242 616 247 604 c 0
 258 582 248 555 226 544 c 0
 204 534 177 543 166 565 c 0
 165 568 159 569 155 570 c 0
 142 571 125 566 112 558 c 1
 118 555 126 551 138 547 c 0
 164 538 196 529 227 521 c 2
 230 521 l 2
 251 515 265 496 263 474 c 0
 262 453 245 435 224 432 c 0
 159 424 141 405 137 399 c 0
 134 395 133 393 134 389 c 0
 138 376 143 374 145 373 c 0
 149 371 159 368 181 372 c 0
 204 376 234 385 272 401 c 0
 295 410 321 399 331 375 c 0
 340 352 329 326 306 317 c 0
EndSplineSet
EndChar

StartChar: quotesingle
Encoding: 39 39 6
Width: 147
Flags: HW
HStem: 503.836 190.898
LayerCount: 2
Fore
SplineSet
93 504 m 0
 77 504 62 512 54 527 c 0
 48 537 34 574 12 638 c 0
 4 661 17 687 40 695 c 0
 64 703 90 690 98 667 c 0
 111 627 128 579 133 570 c 0
 144 549 136 522 115 510 c 0
 108 506 100 504 93 504 c 0
132 571 m 1
 132 571 132 571 132 570 c 1
 132 571 132 571 132 571 c 1
EndSplineSet
EndChar

StartChar: parenleft
Encoding: 40 40 7
Width: 222
Flags: HW
VStem: 10.9927 199.217
LayerCount: 2
Fore
SplineSet
165 195 m 0
 157 195 150 197 142 202 c 0
 107 222 71 246 45 284 c 0
 18 324 6 375 11 439 c 0
 11 440 11 441 11 442 c 0
 21 515 47 617 153 654 c 0
 176 662 202 650 210 626 c 0
 218 603 206 577 183 569 c 0
 137 553 112 511 101 431 c 1
 95 339 128 314 188 279 c 0
 210 266 217 239 204 217 c 0
 196 203 181 195 165 195 c 0
EndSplineSet
EndChar

StartChar: parenright
Encoding: 41 41 8
Width: 245
Flags: HW
VStem: 13.1341 220.074
LayerCount: 2
Fore
SplineSet
121 183 m 0
 111 183 101 186 92 193 c 0
 73 209 71 238 86 257 c 0
 132 312 152 373 144 438 c 0
 133 503 101 544 39 568 c 0
 15 577 4 603 13 626 c 0
 22 650 48 661 71 652 c 0
 163 616 218 548 233 451 c 0
 233 451 233 450 233 449 c 0
 240 398 234 349 216 301 c 0
 203 266 182 231 156 199 c 0
 147 189 134 183 121 183 c 0
EndSplineSet
EndChar

StartChar: asterisk
Encoding: 42 42 9
Width: 319
Flags: HW
HStem: 554.47 20.3701G<107.573 119.093 237.078 248.608> 605.49 88.7002<16.5214 68.6254>
VStem: 11.3027 298.34
LayerCount: 2
Fore
SplineSet
310 669 m 0
 309 650 295 634 278 628 c 1
 278 628 278 627 279 627 c 0
 294 608 291 579 272 564 c 0
 264 557 254 554 244 554 c 0
 230 554 217 560 209 571 c 0
 200 582 190 593 179 605 c 1
 146 569 l 2
 137 559 125 554 113 554 c 0
 102 554 91 558 83 566 c 0
 71 577 66 593 69 607 c 1
 67 607 66 607 66 607 c 0
 62 606 59 605 55 605 c 0
 35 605 16 619 11 640 c 0
 5 664 20 688 44 694 c 0
 46 695 60 698 82 702 c 1
 66 719 66 746 82 763 c 0
 98 781 127 783 145 766 c 0
 147 765 159 753 177 736 c 1
 200 761 l 2
 216 780 245 781 263 764 c 0
 277 752 281 732 275 715 c 1
 296 710 311 691 310 669 c 0
EndSplineSet
EndChar

StartChar: plus
Encoding: 43 43 10
Width: 365
Flags: HW
HStem: 430.07 88.8301<16.7937 118.632> 462.54 90.9502<212.888 308.974> 476.43 90<214.877 349.198>
VStem: 120.398 89.4502<392.117 444.3 553.49 649.061> 123.438 89.4502<343.421 444.3 553.49 600.887>
LayerCount: 2
Fore
SplineSet
356 521 m 0x30
 356 496 336 476 311 476 c 0
 311 476 311 476 310 476 c 2
 309 476 l 2x30
 293 476 255 471 213 463 c 1x48
 216 382 l 2
 216 357 197 336 172 336 c 0
 172 335 171 335 171 335 c 0
 146 335 126 355 126 379 c 2
 123 444 l 1
 102 440 82 435 65 431 c 0
 62 430 58 430 55 430 c 0
 35 430 16 444 11 465 c 0
 6 489 21 513 45 519 c 0x88
 53 521 83 528 120 536 c 1
 118 611 l 2
 117 635 137 656 161 657 c 0
 186 658 207 638 208 614 c 2
 210 553 l 1x50
 250 561 288 566 310 566 c 0
 311 566 311 566 312 566 c 0
 336 566 356 546 356 521 c 0x30
EndSplineSet
EndChar

StartChar: comma
Encoding: 44 44 11
Width: 126
Flags: HW
HStem: 193.862 179.659<27.0337 92.1788>
VStem: 19.751 70.5029<195.982 280.115> 23.4102 86.0332<267.468 369.985>
LayerCount: 2
Fore
SplineSet
55 194 m 0xc0
 45 194 35 197 27 204 c 0
 8 219 4 247 20 267 c 0xc0
 30 280 26 308 23 317 c 0
 16 341 29 366 53 374 c 0
 77 381 102 367 109 344 c 0xa0
 112 336 132 264 90 211 c 0
 81 200 68 194 55 194 c 0xc0
EndSplineSet
EndChar

StartChar: hyphen
Encoding: 45 45 12
Width: 272
Flags: HW
HStem: 457.78 90.4414<16.8912 239.662>
VStem: 10.0731 252.421
LayerCount: 2
Fore
SplineSet
73 458 m 0
 67 458 60 458 52 458 c 0
 28 460 9 481 10 506 c 0
 11 531 33 550 58 548 c 0
 92 546 126 551 161 557 c 0
 178 559 195 562 213 564 c 0
 238 566 260 548 262 524 c 0
 265 499 247 477 223 474 c 0
 207 472 190 470 175 468 c 0
 143 463 109 458 73 458 c 0
EndSplineSet
EndChar

StartChar: period
Encoding: 46 46 13
Width: 116
Flags: HW
VStem: 13.2373 89.6396<268.98 361.472>
LayerCount: 2
Fore
SplineSet
62 260 m 0
 56 260 50 262 44 264 c 0
 29 270 18 282 13 296 c 0
 5 319 14 339 17 344 c 0
 28 366 56 375 78 364 c 0
 93 356 101 341 102 325 c 1
 108 314 108 300 103 288 c 0
 96 271 79 260 62 260 c 0
EndSplineSet
EndChar

StartChar: slash
Encoding: 47 47 14
Width: 219
Flags: HW
LayerCount: 2
Fore
SplineSet
55 280 m 0
 49 280 43 281 37 284 c 0
 15 293 4 320 14 343 c 0
 73 481 111 588 121 623 c 0
 128 647 153 660 177 653 c 0
 200 646 214 621 207 597 c 0
 194 552 150 434 96 308 c 0
 89 290 72 280 55 280 c 0
EndSplineSet
EndChar

StartChar: zero
Encoding: 48 48 15
Width: 373
Flags: HW
HStem: 272.458 90<115.944 210.839>
VStem: 10.0518 89.9541<386.9 494.659> 273.017 89.9541<421.608 528.593>
LayerCount: 2
Fore
SplineSet
151 272 m 0
 102 272 61 297 36 342 c 0
 13 382 10 425 10 437 c 0
 8 488 46 546 58 563 c 0
 78 592 121 642 175 654 c 0
 195 658 214 649 223 633 c 1
 245 632 266 626 285 615 c 0
 310 601 330 579 344 552 c 0
 357 527 364 499 363 471 c 0
 362 424 336 374 293 334 c 0
 251 295 199 273 152 272 c 0
 152 272 151 272 151 272 c 0
140 522 m 1
 137 519 135 515 132 511 c 0
 110 479 100 450 100 440 c 0
 100 426 104 404 114 386 c 0
 126 365 139 362 151 362 c 0
 151 362 151 362 151 362 c 0
 176 363 207 377 232 400 c 0
 257 423 272 451 273 473 c 0
 274 499 260 526 241 537 c 0
 223 547 201 544 175 528 c 0
 164 521 152 519 140 522 c 1
EndSplineSet
EndChar

StartChar: one
Encoding: 49 49 16
Width: 225
Flags: HW
VStem: 123.07 89.8926<291.136 521.612>
LayerCount: 2
Fore
SplineSet
165 283 m 0
 141 283 121 302 120 326 c 0
 118 379 121 430 123 476 c 0
 124 491 125 507 125 522 c 1
 110 513 93 504 74 495 c 0
 52 485 25 495 14 517 c 0
 4 540 13 566 36 577 c 0
 85 600 119 621 135 640 c 0
 147 653 166 658 183 653 c 0
 200 647 212 632 214 614 c 0
 218 572 216 523 213 471 c 0
 211 425 208 378 210 329 c 0
 211 304 191 283 167 283 c 0
 166 283 166 283 165 283 c 0
EndSplineSet
EndChar

StartChar: two
Encoding: 50 50 17
Width: 327
Flags: HW
HStem: 290.444 91.5537<145.745 306.822> 544.099 89.8594<16.6926 143.798>
VStem: 10.0716 306.859
LayerCount: 2
Fore
SplineSet
179 290 m 0
 163 290 149 291 137 292 c 0
 117 295 102 298 90 304 c 0
 68 315 59 330 55 341 c 0
 48 357 47 375 53 395 c 0
 57 408 64 422 74 440 c 0
 91 468 116 503 143 540 c 0
 144 542 145 543 146 544 c 1
 111 547 74 545 58 544 c 0
 33 543 11 562 10 587 c 0
 9 611 28 633 52 634 c 0
 142 639 200 633 240 613 c 0
 252 608 261 597 265 584 c 0
 268 572 266 558 258 547 c 0
 244 527 230 507 216 488 c 0
 195 459 175 431 161 408 c 0
 154 397 149 388 145 382 c 1
 163 380 199 379 268 386 c 0
 292 388 314 370 317 345 c 0
 319 321 301 299 277 296 c 0
 238 292 206 290 179 290 c 0
EndSplineSet
EndChar

StartChar: three
Encoding: 51 51 18
Width: 373
Flags: HW
HStem: 301.812 90.6123<81.7938 268.405> 555.27 86.499<15.6766 183.397>
LayerCount: 2
Fore
SplineSet
210 302 m 0
 182 302 150 304 113 307 c 0
 88 309 70 331 72 356 c 0
 74 381 96 399 121 397 c 0
 167 392 204 391 233 392 c 0
 252 393 264 395 271 397 c 1
 267 413 251 445 165 455 c 0
 146 458 131 472 126 490 c 0
 122 509 130 528 146 538 c 0
 167 552 179 563 185 571 c 1
 161 574 123 571 67 555 c 0
 44 548 19 562 12 586 c 0
 5 610 19 635 43 642 c 0
 110 661 202 677 259 640 c 0
 269 634 277 623 279 611 c 0
 285 581 279 551 261 524 c 1
 278 517 292 509 305 499 c 0
 335 476 353 446 360 410 c 0
 367 385 363 362 349 343 c 0
 327 315 285 302 210 302 c 0
EndSplineSet
EndChar

StartChar: four
Encoding: 52 52 19
Width: 305
Flags: HW
HStem: 414.77 92.4102<100.728 199.427>
VStem: 11.4678 88.7305<505.807 507.18 508.062 571.031 632.09 655.57> 205.738 89.9502<309.487 426.02 514.034 675.8>
LayerCount: 2
Fore
SplineSet
252 303 m 0
 252 303 251 303 251 303 c 0
 226 303 206 322 206 346 c 2
 205 363 l 2
 205 384 204 405 203 426 c 1
 176 418 151 415 127 415 c 0
 97 415 69 420 40 431 c 0
 24 437 13 452 11 469 c 0
 7 508 12 542 17 579 c 0
 20 596 22 614 24 632 c 0
 26 657 48 675 72 673 c 0
 97 671 116 649 113 624 c 0
 112 604 109 585 107 567 c 0
 104 545 101 526 100 507 c 1
 127 502 158 504 201 520 c 1
 201 561 202 602 203 641 c 0
 205 666 226 685 251 684 c 0
 275 683 295 662 293 637 c 0
 289 552 292 457 295 366 c 2
 296 349 l 2
 296 324 277 303 252 303 c 0
EndSplineSet
EndChar

StartChar: five
Encoding: 53 53 20
Width: 351
Flags: HW
HStem: 587.82 87.1396<196.224 335.861>
VStem: 12.034 328.09
LayerCount: 2
Fore
SplineSet
338 414 m 0
 342 361 320 330 301 313 c 0
 275 291 238 280 190 280 c 0
 154 280 112 286 64 298 c 0
 55 300 46 305 40 312 c 0
 16 341 17 385 43 414 c 0
 60 432 89 433 107 417 c 0
 118 406 123 391 121 377 c 1
 212 360 238 377 242 381 c 0
 244 383 249 387 248 402 c 0
 246 406 235 417 203 429 c 0
 167 443 115 453 50 460 c 0
 37 461 25 469 17 480 c 0
 10 491 8 505 12 518 c 0
 16 531 23 545 32 559 c 1
 21 567 13 579 11 594 c 0
 9 619 28 640 53 642 c 0
 133 648 210 656 285 675 c 0
 309 681 334 667 340 643 c 0
 346 619 332 594 308 588 c 0
 256 575 205 567 153 561 c 1
 144 553 137 546 131 540 c 1
 172 533 206 524 235 513 c 0
 261 504 282 493 298 480 c 0
 319 463 332 442 337 420 c 0
 337 418 338 416 338 414 c 0
EndSplineSet
EndChar

StartChar: six
Encoding: 54 54 21
Width: 342
Flags: HW
HStem: 234.903 90.0215<175.011 225.108>
VStem: 10.0353 89.9717<406.35 522.503>
LayerCount: 2
Fore
SplineSet
187 235 m 0
 187 235 187 235 187 235 c 0
 136 236 92 255 61 291 c 0
 30 327 13 379 10 445 c 0
 10 445 10 446 10 446 c 0
 10 492 22 535 45 570 c 0
 67 606 100 633 140 650 c 0
 163 659 189 649 199 626 c 0
 208 603 198 576 175 567 c 0
 128 547 101 503 100 447 c 0
 101 432 102 418 105 405 c 1
 113 420 124 434 136 446 c 0
 163 472 197 489 230 491 c 0
 253 492 275 486 292 473 c 0
 311 460 324 439 331 414 c 0
 331 413 331 411 331 410 c 0
 338 370 324 325 296 291 c 0
 268 257 231 237 190 235 c 0
 189 235 188 235 187 235 c 0
173 326 m 1
 177 325 182 325 187 325 c 0
 206 326 220 340 226 347 c 0
 238 362 244 380 243 395 c 0
 241 399 240 400 240 400 c 0
 239 401 230 402 219 396 c 0
 199 386 178 363 174 333 c 0
 174 331 173 328 173 326 c 1
EndSplineSet
EndChar

StartChar: seven
Encoding: 55 55 22
Width: 361
Flags: HW
HStem: 528.04 127.76<22.8213 101.952>
LayerCount: 2
Fore
SplineSet
311 409 m 0
 293 408 275 405 258 402 c 1
 243 371 227 337 209 301 c 0
 201 285 185 276 168 276 c 0
 162 276 155 278 148 281 c 0
 126 292 117 319 128 341 c 0
 133 351 138 361 143 370 c 1
 126 370 110 380 103 395 c 0
 92 418 101 445 123 456 c 0
 143 466 168 474 194 481 c 1
 210 518 223 552 233 582 c 1
 197 586 154 584 105 575 c 1
 108 556 99 537 82 528 c 0
 59 517 32 525 21 548 c 0
 5 578 6 609 24 636 c 0
 30 646 40 653 52 656 c 0
 153 679 235 680 303 660 c 0
 326 653 340 629 334 606 c 0
 326 574 314 538 298 498 c 1
 300 498 302 499 303 499 c 0
 328 501 350 482 352 458 c 0
 354 433 335 411 311 409 c 0
EndSplineSet
EndChar

StartChar: eight
Encoding: 56 56 23
Width: 342
Flags: HW
HStem: 236.081 90.0107<159.933 240.851>
LayerCount: 2
Fore
SplineSet
201 236 m 0
 200 236 200 236 200 236 c 0
 142 237 105 250 84 275 c 0
 70 292 65 313 68 336 c 0
 75 382 104 417 136 444 c 1
 119 455 100 468 79 481 c 0
 73 484 68 489 65 495 c 1
 44 490 23 500 14 520 c 0
 4 542 14 569 36 579 c 0
 89 604 132 616 172 618 c 0
 227 622 273 605 309 570 c 0
 312 567 314 564 316 561 c 0
 323 549 330 529 322 504 c 0
 319 490 311 475 300 461 c 0
 295 455 290 450 285 444 c 1
 319 411 333 384 333 354 c 0
 333 354 333 353 333 353 c 0
 333 321 317 290 289 268 c 0
 264 248 233 236 201 236 c 0
 201 236 201 236 201 236 c 0
159 331 m 1
 166 329 179 327 201 326 c 0
 223 327 242 342 243 354 c 0
 243 355 240 363 218 383 c 0
 216 385 214 387 212 389 c 0
 181 367 164 348 159 331 c 1
172 528 m 1
 187 518 201 509 214 501 c 1
 221 507 226 513 230 518 c 1
 217 526 199 531 172 528 c 1
EndSplineSet
EndChar

StartChar: nine
Encoding: 57 57 24
Width: 292
Flags: HW
VStem: 10.0333 89.9893<487.292 528.131>
LayerCount: 2
Fore
SplineSet
230 263 m 0
 228 263 227 263 226 264 c 0
 201 266 183 288 185 312 c 0
 187 344 189 373 191 398 c 1
 146 389 111 389 79 399 c 0
 79 399 78 399 77 399 c 0
 42 412 26 435 19 452 c 0
 11 470 10 489 10 506 c 0
 10 536 26 567 53 590 c 0
 81 614 116 627 153 627 c 0
 154 627 155 627 156 627 c 0
 194 624 223 612 244 591 c 0
 263 572 271 550 276 531 c 0
 276 530 276 528 277 527 c 0
 285 485 284 415 274 305 c 0
 272 281 253 263 230 263 c 0
106 485 m 0
 120 481 143 478 191 490 c 1
 190 497 189 503 188 509 c 0
 186 516 184 524 180 528 c 0
 175 532 165 536 151 537 c 0
 132 537 119 528 113 523 c 0
 104 515 100 507 100 504 c 0
 100 498 100 490 101 487 c 0
 102 487 103 486 106 485 c 0
EndSplineSet
EndChar

StartChar: colon
Encoding: 58 58 25
Width: 154
Flags: HW
HStem: 275.988 101.848<61.5277 132.903> 434.054 85.7549<55.2131 107.989>
VStem: 12.1347 102.771<442.572 516.267>
LayerCount: 2
Fore
SplineSet
55 432 m 0
 36 432 18 444 12 463 c 0
 5 487 18 512 41 520 c 2
 58 525 l 2
 82 533 107 520 115 496 c 0
 122 472 109 447 86 439 c 2
 69 434 l 2
 64 433 60 432 55 432 c 0
100 276 m 0
 82 276 66 286 58 303 c 2
 51 319 l 2
 41 341 52 368 75 378 c 0
 97 388 124 377 134 355 c 2
 141 339 l 2
 151 316 140 290 118 280 c 0
 112 277 106 276 100 276 c 0
EndSplineSet
EndChar

StartChar: semicolon
Encoding: 59 59 26
Width: 159
Flags: HW
VStem: 59.7525 89.9775<194.566 309.461>
LayerCount: 2
Fore
SplineSet
78 434 m 0
 59 434 41 446 35 465 c 0
 30 480 34 496 43 508 c 1
 42 517 44 526 49 535 c 0
 62 557 89 564 111 552 c 0
 130 540 141 519 139 495 c 0
 136 468 116 444 92 436 c 0
 87 435 82 434 78 434 c 0
66 474 m 1
 66 474 66 474 66 474 c 1
 66 474 66 474 66 474 c 1
55 97 m 0
 43 97 31 102 22 111 c 0
 5 129 6 158 24 175 c 0
 30 180 40 194 48 217 c 0
 56 236 60 257 60 270 c 0
 59 295 79 315 104 316 c 0
 104 316 104 316 105 316 c 0
 129 316 149 296 150 272 c 0
 150 238 139 203 132 185 c 0
 125 166 110 131 86 109 c 0
 77 101 66 97 55 97 c 0
EndSplineSet
EndChar

StartChar: less
Encoding: 60 60 27
Width: 293
Flags: HW
LayerCount: 2
Fore
SplineSet
239 275 m 0
 234 275 229 276 224 278 c 0
 177 294 113 344 23 436 c 0
 6 453 6 480 22 498 c 0
 71 552 115 591 170 628 c 0
 190 642 218 637 232 617 c 0
 246 596 241 568 221 554 c 0
 182 528 151 502 118 468 c 1
 199 390 237 368 254 363 c 0
 277 355 289 329 281 305 c 0
 275 287 257 275 239 275 c 0
EndSplineSet
EndChar

StartChar: equal
Encoding: 61 61 28
Width: 276
Flags: HW
HStem: 345.272 89.9648<23.2355 233.85> 492.214 89.248<16.7244 254.832> 586.657 21G<208.444 208.444>
VStem: 10.7676 253.512
LayerCount: 2
Fore
SplineSet
55 492 m 0
 34 492 15 507 11 529 c 0
 6 553 22 577 47 581 c 0
 64 585 93 585 140 585 c 0
 164 585 201 586 210 587 c 0
 233 593 257 579 264 556 c 0
 271 532 258 507 234 500 c 0
 220 496 197 496 141 495 c 0
 114 495 73 495 63 493 c 0
 60 492 58 492 55 492 c 0
208 587 m 1
 208 587 208 587 208 587 c 1
 208 587 208 587 208 587 c 1
211 587 m 1
 211 587 211 587 211 587 c 1
61 345 m 0
 37 345 18 364 17 388 c 0
 16 413 35 434 60 435 c 1
 114 437 182 443 197 448 c 0
 220 457 246 444 254 421 c 0
 262 397 250 372 226 363 c 0
 191 351 93 346 63 345 c 0
 63 345 62 345 61 345 c 0
EndSplineSet
EndChar

StartChar: greater
Encoding: 62 62 29
Width: 363
Flags: HW
LayerCount: 2
Fore
SplineSet
121 234 m 0
 112 234 103 236 95 241 c 0
 75 255 70 283 84 304 c 0
 120 358 164 398 202 433 c 0
 213 443 224 453 235 463 c 1
 214 472 194 481 174 489 c 0
 127 509 78 530 31 559 c 0
 10 572 4 600 17 621 c 0
 30 642 57 649 79 636 c 0
 120 610 163 592 209 572 c 0
 249 555 290 538 330 515 c 0
 342 509 350 498 353 485 c 0
 355 472 352 458 344 448 c 0
 320 418 292 393 263 366 c 0
 226 333 189 299 158 253 c 0
 149 240 135 234 121 234 c 0
EndSplineSet
EndChar

StartChar: question
Encoding: 63 63 30
Width: 327
Flags: HW
HStem: 350.863 89.6777<168.427 310.261> 617.622 89.9971<16.8667 177.281>
VStem: 10.002 306.896
LayerCount: 2
Fore
SplineSet
194 346 m 0
 182 346 172 347 162 348 c 0
 102 355 80 387 72 413 c 0
 70 420 70 427 71 433 c 0
 76 468 106 510 151 569 c 0
 159 580 169 594 178 606 c 1
 171 608 162 610 151 611 c 0
 125 615 92 617 55 618 c 0
 30 618 10 638 10 663 c 0
 10 688 31 708 55 708 c 0
 105 707 147 704 180 698 c 0
 216 692 265 678 280 639 c 0
 284 630 285 621 283 613 c 0
 278 589 259 563 223 515 c 0
 207 495 192 474 179 455 c 0
 175 448 171 442 168 438 c 1
 173 437 179 436 188 436 c 0
 209 436 237 438 266 441 c 2
 268 441 l 2
 293 443 315 424 317 400 c 0
 319 375 301 353 276 351 c 2
 274 351 l 2
 244 348 218 346 194 346 c 0
202 598 m 1
 202 598 l 1
 202 598 l 1
159 217 m 0
 143 217 128 225 120 240 c 0
 108 262 116 289 137 301 c 2
 165 316 l 2
 187 328 214 321 226 299 c 0
 238 277 230 250 209 238 c 2
 181 222 l 2
 174 218 166 217 159 217 c 0
EndSplineSet
EndChar

StartChar: at
Encoding: 64 64 31
Width: 447
Flags: HW
HStem: 309.46 90.0674<154.405 328.83> 416.618 90.0791<223.852 269.802> 628.753 20G<220.232 236.246> 670.458 89.9922<157.34 334.575>
VStem: 10.0279 89.9941<459.757 616.689> 133.163 89.9893<506.888 551.028>
LayerCount: 2
Fore
SplineSet
230 309 m 0
 226 309 223 309 219 310 c 0
 186 310 155 317 128 332 c 0
 102 345 79 364 61 388 c 0
 27 432 9 491 10 553 c 0
 11 610 34 662 76 701 c 0
 97 720 122 735 151 745 c 0
 180 756 211 761 245 760 c 0
 292 760 332 752 363 736 c 0
 412 712 429 677 433 652 c 0
 434 652 434 651 434 651 c 0
 443 593 433 544 405 512 c 0
 394 499 376 485 350 478 c 1
 347 472 344 467 340 462 c 0
 330 449 317 439 301 432 c 0
 272 418 241 416 225 417 c 0
 169 417 132 459 133 521 c 0
 134 549 142 578 156 600 c 0
 175 631 204 649 236 649 c 0
 236 649 236 649 237 649 c 0
 260 649 280 642 294 628 c 0
 303 619 313 603 313 577 c 0
 313 572 312 568 310 563 c 1
 312 563 314 564 316 564 c 0
 331 563 335 568 337 571 c 0
 344 579 350 601 345 635 c 0
 343 644 332 651 324 655 c 0
 305 665 276 670 244 670 c 0
 200 671 164 658 137 634 c 0
 114 613 100 583 100 552 c 0
 99 510 111 471 132 443 c 0
 154 415 183 400 220 400 c 0
 305 398 325 413 330 422 c 0
 341 444 368 453 390 441 c 0
 412 430 421 403 410 381 c 0
 394 351 366 330 325 319 c 0
 300 313 269 309 230 309 c 0
225 507 m 0
 225 507 226 507 227 507 c 0
 240 506 254 509 263 513 c 0
 270 516 270 518 270 520 c 0
 270 525 271 529 272 533 c 1
 270 533 269 533 267 533 c 0
 252 533 239 541 231 551 c 1
 227 544 223 532 223 520 c 0
 223 513 224 509 225 507 c 0
EndSplineSet
EndChar

StartChar: A
Encoding: 65 65 32
Width: 393
Flags: HW
LayerCount: 2
Fore
SplineSet
378 346 m 2
 221 630 l 2
 211 649 189 657 168 651 c 0
 148 645 135 625 137 604 c 0
 138 588 127 541 91 462 c 0
 84 446 78 432 71 419 c 0
 69 414 66 409 64 405 c 0
 46 371 31 346 26 339 c 0
 9 325 5 300 17 281 c 0
 26 267 40 260 55 260 c 0
 63 260 72 262 79 267 c 0
 88 273 98 281 123 325 c 0
 127 333 132 341 137 350 c 1
 265 364 l 1
 299 302 l 2
 311 281 338 273 360 285 c 0
 382 297 390 324 378 346 c 2
183 446 m 1
 188 459 194 472 198 484 c 1
 218 450 l 1
 183 446 l 1
71 419 m 1
 69 414 66 409 64 405 c 1
 65 410 68 415 71 419 c 1
EndSplineSet
EndChar

StartChar: B
Encoding: 66 66 33
Width: 424
Flags: HW
HStem: 215.55 112.32<210.88 300.362> 555.077 91.0322<115.393 248.497>
VStem: 324.359 89.6426<307.809 367.324>
LayerCount: 2
Fore
SplineSet
308 216 m 0
 278 216 243 224 201 241 c 0
 195 244 190 248 185 252 c 1
 180 247 174 243 167 241 c 0
 143 233 118 246 110 270 c 0
 109 272 36 501 12 570 c 0
 8 583 10 597 17 608 c 0
 23 619 35 627 48 629 c 0
 50 630 104 638 161 643 c 0
 195 646 224 647 246 646 c 0
 275 645 306 641 323 617 c 0
 351 584 351 551 347 530 c 0
 341 507 328 485 306 464 c 1
 318 461 329 456 338 451 c 0
 383 427 410 391 414 348 c 0
 414 347 414 347 414 347 c 0
 416 323 414 302 409 284 c 0
 402 264 390 247 374 235 c 0
 356 222 334 216 308 216 c 0
218 328 m 0
 224 328 230 327 235 324 c 0
 292 301 317 305 321 308 c 0
 322 309 326 317 324 339 c 0
 323 351 314 362 297 371 c 0
 278 381 242 393 179 393 c 0
 178 393 178 393 178 393 c 0
 173 393 169 393 165 395 c 1
 175 363 184 335 190 317 c 1
 198 324 208 328 218 328 c 0
115 547 m 1
 123 523 132 494 142 465 c 1
 146 471 152 476 159 479 c 0
 233 511 256 538 259 549 c 0
 259 551 259 553 257 555 c 0
 246 556 218 558 153 552 c 0
 140 550 127 549 115 547 c 1
EndSplineSet
EndChar

StartChar: C
Encoding: 67 67 34
Width: 360
Flags: HW
HStem: 341.781 87.2588<104.919 344.916> 540.341 89.748<128.804 231.081>
LayerCount: 2
Fore
SplineSet
180 321 m 0
 133 321 96 332 67 353 c 0
 32 378 13 418 10 469 c 0
 10 472 10 474 10 477 c 0
 15 519 34 557 66 584 c 0
 97 610 140 626 189 630 c 0
 214 632 236 613 238 589 c 0
 239 564 221 542 196 540 c 0
 163 538 108 526 100 471 c 1
 103 438 116 429 121 425 c 0
 139 412 185 401 295 429 c 0
 319 435 344 421 350 396 c 0
 356 372 341 348 317 342 c 0
 266 329 224 322 188 322 c 0
 186 322 183 321 180 321 c 0
EndSplineSet
EndChar

StartChar: D
Encoding: 68 68 35
Width: 405
Flags: HW
HStem: 307.196 90.7803<166.905 278.239> 535.711 89.9912<128.355 243.564>
LayerCount: 2
Fore
SplineSet
139 307 m 0
 138 307 136 307 135 307 c 0
 113 307 95 323 91 344 c 0
 73 443 41 519 17 557 c 0
 8 570 8 587 15 602 c 0
 23 616 37 625 53 626 c 0
 135 629 201 623 254 606 c 0
 315 587 358 554 383 508 c 0
 384 507 385 505 385 503 c 0
 407 448 392 408 376 385 c 0
 340 333 260 307 139 307 c 0
128 536 m 1
 146 495 161 447 172 398 c 1
 250 402 290 420 302 436 c 0
 304 439 310 447 302 468 c 1
 289 492 264 509 227 520 c 0
 200 529 167 534 128 536 c 1
EndSplineSet
EndChar

StartChar: E
Encoding: 69 69 36
Width: 286
Flags: HW
HStem: 255.835 90.6914<109.286 211.59>
LayerCount: 2
Fore
SplineSet
146 256 m 0
 137 256 129 257 122 258 c 0
 83 265 52 288 29 327 c 0
 27 330 25 333 24 337 c 0
 15 366 16 400 28 431 c 0
 33 445 40 459 49 472 c 1
 18 501 4 543 12 591 c 0
 13 597 15 603 18 608 c 0
 40 643 77 665 117 669 c 0
 139 671 161 667 182 658 c 0
 204 648 224 633 243 612 c 0
 259 594 258 565 240 549 c 0
 221 532 193 533 176 552 c 0
 164 565 145 581 125 579 c 0
 114 578 106 573 100 567 c 1
 99 545 110 532 134 524 c 0
 151 519 162 505 165 489 c 0
 168 472 161 455 148 445 c 0
 115 421 105 389 109 368 c 1
 120 352 130 348 137 347 c 0
 149 344 171 346 210 367 c 0
 232 379 259 371 271 349 c 0
 283 327 275 300 253 288 c 0
 213 266 178 256 146 256 c 0
EndSplineSet
EndChar

StartChar: F
Encoding: 70 70 37
Width: 359
Flags: HW
HStem: 555.22 87.2998<133.526 312.622>
VStem: 84.3916 89.96<290.689 395.323>
LayerCount: 2
Fore
SplineSet
311 416 m 2
 172 396 l 1
 174 373 175 350 174 328 c 0
 174 303 154 284 129 284 c 0
 129 284 128 284 128 284 c 0
 103 285 84 305 84 330 c 0
 88 436 54 538 19 583 c 0
 10 596 7 613 13 627 c 0
 19 642 32 652 48 655 c 0
 117 666 226 657 285 643 c 0
 309 636 323 612 317 588 c 0
 311 564 287 549 263 555 c 0
 230 563 178 569 130 570 c 1
 139 548 147 525 154 500 c 0
 155 495 156 490 157 485 c 1
 298 505 l 2
 323 509 345 492 349 467 c 0
 352 443 335 420 311 416 c 2
EndSplineSet
EndChar

StartChar: G
Encoding: 71 71 38
Width: 409
Flags: HW
HStem: 265.123 89.9844<354.415 393.103> 288.722 90.002<150.367 229.155> 529.686 121.436<193.847 253.071>
VStem: 10.0672 89.9336<393.336 492.383>
LayerCount: 2
Fore
SplineSet
354 265 m 0xb0
 330 265 307 276 285 297 c 0
 278 303 273 310 267 316 c 1
 237 298 201 289 158 289 c 0
 155 289 153 289 150 289 c 0
 147 289 145 289 142 290 c 0
 104 298 74 313 52 334 c 0
 28 358 14 388 10 424 c 0
 10 425 10 426 10 427 c 0
 8 495 54 561 93 605 c 0
 94 606 95 607 97 609 c 0
 117 626 136 639 154 646 c 0
 178 656 199 657 219 651 c 0
 236 646 265 630 277 584 c 0
 283 560 268 536 244 530 c 0
 220 524 195 539 189 563 c 0
 189 563 189 563 189 563 c 1
 183 561 173 555 158 543 c 0
 121 501 100 459 100 431 c 0
 102 410 112 389 157 379 c 1x70
 208 378 227 396 238 410 c 0
 246 421 260 427 273 427 c 0
 274 427 274 427 274 427 c 0
 288 427 301 420 309 409 c 0
 312 405 315 401 318 398 c 0
 326 387 335 375 343 366 c 0
 350 358 354 356 356 355 c 0
 380 355 400 335 400 311 c 0
 400 286 380 265 355 265 c 0
 355 265 355 265 354 265 c 0xb0
EndSplineSet
EndChar

StartChar: H
Encoding: 72 72 39
Width: 403
Flags: HW
HStem: 398.36 88.71<189.754 250.987>
VStem: 63.2279 89.3994<285.969 363.515>
LayerCount: 2
Fore
SplineSet
362 278 m 0
 358 277 353 276 348 276 c 0
 329 276 312 288 306 307 c 0
 296 336 287 367 279 396 c 0
 278 397 278 398 278 398 c 0
 239 398 209 391 189 377 c 0
 169 364 157 345 153 317 c 0
 149 295 130 279 108 279 c 0
 107 279 105 279 104 279 c 0
 80 282 62 302 63 326 c 0
 66 404 48 494 14 572 c 0
 4 594 14 621 37 631 c 0
 59 641 86 631 96 608 c 0
 118 559 134 507 143 455 c 1
 172 473 208 484 251 487 c 1
 240 520 229 551 216 576 c 0
 205 598 214 625 236 636 c 0
 258 648 286 639 297 616 c 0
 324 562 345 491 365 422 c 0
 373 393 382 363 391 335 c 0
 399 311 386 286 362 278 c 0
EndSplineSet
EndChar

StartChar: I
Encoding: 73 73 40
Width: 198
Flags: HW
HStem: 310.784 21G<134.042 145.774>
LayerCount: 2
Fore
SplineSet
143 311 m 0
 125 311 108 322 101 340 c 0
 95 357 88 375 82 392 c 0
 60 452 37 514 15 556 c 0
 4 578 12 605 34 617 c 0
 57 628 84 619 95 597 c 0
 119 550 143 486 166 423 c 0
 172 406 179 389 185 372 c 0
 194 348 182 322 159 314 c 0
 154 312 148 311 143 311 c 0
EndSplineSet
EndChar

StartChar: J
Encoding: 74 74 41
Width: 265
Flags: HW
VStem: 165.076 90.4072<307.54 374.542>
LayerCount: 2
Fore
SplineSet
153 217 m 0
 143 217 133 218 121 220 c 2
 49 230 l 2
 24 233 7 256 10 280 c 0
 14 305 36 322 61 319 c 2
 134 309 l 2
 135 309 136 309 136 309 c 0
 153 305 162 307 165 309 c 0
 166 312 166 325 156 348 c 0
 156 348 156 348 156 349 c 0
 124 427 71 509 32 559 c 0
 17 579 21 607 40 622 c 0
 60 638 88 634 103 614 c 0
 124 588 195 492 239 383 c 0
 249 359 255 337 255 317 c 0
 256 292 249 270 236 252 c 0
 224 238 200 217 153 217 c 0
EndSplineSet
EndChar

StartChar: K
Encoding: 75 75 42
Width: 491
Flags: HW
LayerCount: 2
Fore
SplineSet
473 282 m 0
 464 270 450 264 436 264 c 0
 427 264 418 266 410 272 c 0
 363 306 293 337 185 371 c 1
 190 340 195 308 200 278 c 0
 204 253 188 230 163 226 c 0
 161 226 158 226 156 226 c 0
 134 226 115 242 111 264 c 0
 93 379 70 522 20 585 c 0
 4 605 8 633 27 648 c 0
 47 664 75 660 90 641 c 0
 122 600 144 543 161 480 c 1
 192 524 214 572 229 623 c 0
 236 646 261 660 285 653 c 0
 309 646 322 621 315 597 c 0
 300 543 277 493 246 445 c 1
 345 413 413 381 463 345 c 0
 483 331 487 302 473 282 c 0
EndSplineSet
EndChar

StartChar: L
Encoding: 76 76 43
Width: 328
Flags: HW
VStem: 11.9379 89.665<365.264 643.063>
LayerCount: 2
Fore
SplineSet
190 260 m 0
 156 260 115 268 67 283 c 0
 51 288 39 302 37 318 c 0
 19 419 5 524 12 609 c 0
 14 633 36 652 61 650 c 0
 85 648 104 626 102 601 c 0
 96 533 107 447 121 361 c 1
 175 347 201 349 212 353 c 0
 223 356 227 360 232 372 c 0
 242 395 268 406 291 397 c 0
 314 387 325 361 315 338 c 0
 300 301 275 277 238 266 c 0
 224 262 208 260 190 260 c 0
EndSplineSet
EndChar

StartChar: M
Encoding: 77 77 44
Width: 459
Flags: HW
VStem: 356.61 88.3809<318.533 460.881>
LayerCount: 2
Fore
SplineSet
55 256 m 0
 46 256 37 259 29 265 c 0
 9 279 4 307 18 328 c 0
 51 374 56 459 59 549 c 0
 59 565 68 579 81 587 c 0
 94 594 111 595 125 588 c 0
 162 568 202 537 238 500 c 1
 253 529 266 565 272 599 c 0
 274 614 284 626 298 632 c 0
 312 638 328 637 340 629 c 0
 405 587 425 482 445 380 c 0
 446 375 447 369 448 364 c 0
 453 339 437 316 413 311 c 0
 410 310 407 310 404 310 c 0
 383 310 364 325 360 347 c 0
 359 352 358 358 357 363 c 0
 349 405 340 447 330 483 c 1
 319 458 300 423 275 396 c 0
 266 386 253 381 240 381 c 0
 227 382 215 388 207 399 c 0
 188 422 167 445 145 464 c 1
 143 442 141 419 138 399 c 0
 129 347 114 306 92 275 c 0
 83 263 69 256 55 256 c 0
EndSplineSet
EndChar

StartChar: N
Encoding: 78 78 45
Width: 428
Flags: HW
VStem: 328.51 90.0371<437.242 577.819>
LayerCount: 2
Fore
SplineSet
55 291 m 0
 48 291 42 292 35 295 c 0
 13 306 4 333 15 355 c 0
 42 412 48 511 52 590 c 2
 52 597 l 2
 53 617 67 634 87 639 c 0
 106 643 126 635 136 617 c 0
 139 613 141 608 144 603 c 0
 170 558 194 515 216 483 c 0
 241 447 255 437 261 433 c 0
 277 430 296 427 308 436 c 0
 320 445 328 471 329 507 c 1
 323 563 307 585 281 603 c 0
 261 617 255 645 270 665 c 0
 284 686 312 691 332 677 c 0
 358 659 378 638 391 612 c 0
 406 585 415 552 418 512 c 0
 419 510 419 509 419 507 c 0
 417 440 398 392 362 364 c 0
 345 351 325 343 302 341 c 0
 282 339 259 341 235 347 c 0
 234 348 232 348 230 349 c 0
 201 360 174 386 142 432 c 0
 139 437 135 443 131 449 c 1
 124 401 114 354 95 316 c 0
 88 300 72 291 55 291 c 0
EndSplineSet
EndChar

StartChar: O
Encoding: 79 79 46
Width: 381
Flags: HW
HStem: 293.181 90.1709<121.887 201.543 201.728 256.718> 489.071 103.661<110.49 278.082>
VStem: 281.337 90.1602<408.217 489.328>
LayerCount: 2
Fore
SplineSet
202 293 m 0
 201 293 201 293 200 293 c 0
 147 295 106 304 75 323 c 0
 34 348 11 388 10 439 c 0
 10 442 10 445 11 449 c 0
 20 492 36 528 58 557 c 0
 78 583 103 602 131 613 c 0
 152 621 176 612 187 593 c 1
 194 593 201 593 207 593 c 0
 244 593 277 584 303 569 c 0
 339 548 363 514 371 472 c 0
 371 469 372 466 371 462 c 0
 370 409 355 371 324 343 c 0
 296 318 259 306 212 294 c 0
 209 294 205 293 202 293 c 0
100 436 m 1
 102 415 111 406 121 400 c 0
 137 390 163 385 197 383 c 1
 265 400 279 413 281 460 c 1
 278 474 270 484 258 491 c 0
 230 507 183 507 134 491 c 0
 130 490 125 489 121 489 c 0
 113 476 105 459 100 436 c 1
EndSplineSet
EndChar

StartChar: P
Encoding: 80 80 47
Width: 315
Flags: HW
HStem: 413.495 90.1699<140.469 198.412>
VStem: 13.0586 292.156
LayerCount: 2
Fore
SplineSet
135 279 m 0
 119 279 104 288 96 303 c 0
 56 378 28 436 14 493 c 0
 14 496 13 498 13 501 c 0
 13 504 12 508 12 513 c 0
 10 533 7 561 19 589 c 0
 32 621 61 644 105 658 c 0
 157 675 207 669 247 643 c 0
 281 620 302 584 305 546 c 0
 305 544 305 542 305 539 c 0
 300 482 277 443 236 425 c 0
 205 411 171 412 140 413 c 1
 151 392 162 370 175 345 c 0
 187 323 178 296 156 284 c 0
 150 281 142 279 135 279 c 0
107 505 m 0
 107 505 107 505 107 505 c 0
 118 505 129 504 140 504 c 0
 163 502 186 501 199 507 c 0
 202 508 212 512 215 542 c 0
 213 550 207 561 196 568 c 0
 180 579 158 581 132 572 c 0
 115 567 104 560 102 554 c 0
 99 547 100 535 101 522 c 0
 102 518 102 515 103 511 c 0
 103 509 104 507 104 505 c 0
 105 505 106 505 107 505 c 0
EndSplineSet
EndChar

StartChar: Q
Encoding: 81 81 48
Width: 411
Flags: HW
HStem: 195.32 89.9893<284.247 337.869> 596.37 21G<182.216 193.366>
LayerCount: 2
Fore
SplineSet
384 302 m 0
 364 317 336 313 321 293 c 0
 316 287 312 285 310 285 c 0
 310 285 310 285 310 285 c 0
 309 285 304 287 298 295 c 0
 295 298 292 301 289 304 c 0
 283 308 278 311 272 314 c 1
 302 326 328 342 348 363 c 0
 383 400 400 450 395 503 c 0
 395 507 394 511 392 514 c 0
 377 556 351 584 316 599 c 0
 288 610 256 612 218 604 c 0
 208 602 199 600 188 596 c 1
 176 616 151 624 130 613 c 0
 61 579 18 519 11 448 c 0
 11 448 11 448 11 448 c 0
 7 408 17 376 39 350 c 0
 69 316 114 305 160 300 c 1
 141 286 122 266 99 241 c 0
 83 223 84 194 103 178 c 0
 111 170 122 166 133 166 c 0
 145 166 158 171 166 181 c 0
 181 198 198 216 212 227 c 0
 223 235 227 236 227 236 c 2
 227 236 229 236 232 234 c 0
 254 209 282 195 311 195 c 0
 342 196 371 212 392 239 c 0
 407 259 403 287 384 302 c 0
106 410 m 0
 104 412 98 419 100 439 c 0
 102 458 109 476 120 491 c 1
 132 484 148 483 162 489 c 0
 219 516 260 525 282 516 c 0
 288 513 298 507 306 489 c 1
 308 434 267 396 195 388 c 1
 147 390 117 397 106 410 c 0
EndSplineSet
EndChar

StartChar: R
Encoding: 82 82 49
Width: 433
Flags: HW
HStem: 527.508 90.0801<121.546 224.328>
VStem: 87.7792 86.7891<281.364 340.632>
LayerCount: 2
Fore
SplineSet
379 251 m 0
 367 251 355 255 347 264 c 0
 303 309 245 336 188 340 c 0
 183 340 179 341 175 343 c 1
 175 337 176 331 177 325 c 0
 180 301 163 278 138 275 c 0
 113 272 91 289 88 314 c 0
 77 397 50 464 19 543 c 0
 17 547 15 552 13 556 c 0
 8 570 9 586 18 599 c 0
 27 611 41 619 56 618 c 0
 73 618 89 618 105 618 c 0
 144 618 182 617 214 610 c 0
 258 600 288 578 307 543 c 0
 309 540 311 537 312 533 c 0
 325 482 322 441 302 408 c 0
 301 407 301 405 300 404 c 1
 305 402 310 399 314 397 c 0
 350 380 383 356 411 327 c 0
 428 310 428 281 410 264 c 0
 401 255 390 251 379 251 c 0
122 528 m 1
 136 491 149 455 159 417 c 1
 164 422 171 426 179 428 c 0
 203 435 219 444 225 454 c 0
 232 466 230 487 226 504 c 1
 212 524 183 527 122 528 c 1
EndSplineSet
EndChar

StartChar: S
Encoding: 83 83 50
Width: 407
Flags: HW
HStem: 302.98 90.167<113.976 306.039> 320.016 87.5615<97.1017 306.039> 484.356 89.9424<147.549 267.109>
LayerCount: 2
Fore
SplineSet
254 303 m 0xa0
 217 303 173 309 126 320 c 0
 101 326 86 350 92 374 c 0
 98 398 122 413 146 408 c 0x60
 191 397 231 392 263 393 c 0
 293 394 304 400 307 403 c 0
 302 432 288 457 268 471 c 0
 252 484 233 488 213 485 c 0
 211 485 209 484 207 484 c 0
 171 484 133 491 101 506 c 0
 61 524 32 552 15 586 c 0
 8 599 8 615 15 627 c 0
 22 640 35 649 49 651 c 0
 92 656 120 670 127 677 c 0
 139 698 165 705 187 694 c 0
 209 682 217 655 205 633 c 0
 194 611 171 595 146 585 c 1
 164 578 184 574 202 574 c 0
 245 580 287 569 321 544 c 0
 361 514 389 466 397 412 c 0
 397 411 397 410 397 409 c 0
 399 379 388 353 366 334 c 0
 342 314 307 304 260 303 c 0
 258 303 256 303 254 303 c 0xa0
126 675 m 1
 126 675 126 675 126 675 c 1
 126 675 126 675 126 675 c 1
EndSplineSet
EndChar

StartChar: T
Encoding: 84 84 51
Width: 355
Flags: HW
HStem: 570.22 92.0801<18.0438 171.629>
VStem: 174.748 89.5<284.47 566.696>
LayerCount: 2
Fore
SplineSet
306 581 m 0
 290 579 274 578 259 576 c 1
 271 482 273 397 264 318 c 0
 262 295 242 278 220 278 c 0
 218 278 216 278 215 278 c 0
 190 281 172 303 175 327 c 0
 183 401 181 481 169 571 c 1
 155 570 140 570 127 570 c 0
 101 570 76 571 52 572 c 0
 27 574 9 595 10 620 c 0
 12 645 33 664 58 662 c 0
 129 658 207 661 296 670 c 0
 320 673 343 656 345 631 c 0
 348 606 330 584 306 581 c 0
EndSplineSet
EndChar

StartChar: U
Encoding: 85 85 52
Width: 369
Flags: HW
VStem: 10.1312 89.7422<477.161 641.449>
LayerCount: 2
Fore
SplineSet
227 280 m 0
 226 280 226 280 225 280 c 0
 191 281 160 290 133 307 c 0
 107 323 85 346 67 376 c 0
 36 428 18 501 10 600 c 0
 8 624 27 646 52 648 c 0
 76 650 98 631 100 606 c 0
 106 523 121 461 144 422 c 0
 164 388 189 372 224 370 c 1
 249 374 257 380 260 385 c 0
 268 396 275 427 263 506 c 0
 262 509 261 513 260 516 c 0
 254 535 244 566 211 594 c 0
 192 611 190 639 206 658 c 0
 222 677 250 679 269 663 c 0
 322 618 338 568 345 543 c 0
 346 541 347 538 348 537 c 0
 349 533 350 529 351 525 c 0
 367 429 361 371 333 332 c 0
 307 296 266 285 234 280 c 0
 231 280 229 280 227 280 c 0
347 537 m 1
 347 537 347 537 347 537 c 1
 347 537 347 537 347 537 c 1
EndSplineSet
EndChar

StartChar: V
Encoding: 86 86 53
Width: 368
Flags: HW
HStem: 664.198 20G<301.109 326.075>
VStem: 268.678 90<485.66 677.61>
LayerCount: 2
Fore
SplineSet
244 295 m 0
 230 295 216 302 207 314 c 0
 113 448 52 515 29 531 c 0
 9 546 4 574 18 594 c 0
 33 614 61 619 81 604 c 0
 121 576 184 497 232 433 c 1
 257 506 269 575 269 639 c 0
 269 664 289 684 314 684 c 0
 314 684 314 684 314 684 c 0
 338 684 359 664 359 639 c 0
 359 541 334 434 285 322 c 0
 279 307 265 297 249 296 c 0
 247 295 246 295 244 295 c 0
EndSplineSet
EndChar

StartChar: W
Encoding: 87 87 54
Width: 502
Flags: HW
HStem: 542.316 89.9727<315.85 396.112>
VStem: 10.5762 88.8604<460.868 589.193>
LayerCount: 2
Fore
SplineSet
125 305 m 0
 111 305 98 311 89 323 c 0
 61 362 31 415 11 543 c 0
 7 568 23 591 48 595 c 0
 72 599 95 582 99 558 c 0
 112 477 128 432 145 403 c 1
 174 415 199 439 223 473 c 0
 231 486 246 493 262 493 c 0
 277 492 291 484 299 470 c 0
 315 442 342 426 363 417 c 1
 389 432 400 455 403 498 c 1
 396 540 378 543 355 542 c 0
 331 542 310 561 309 586 c 0
 309 611 328 632 353 632 c 0
 391 633 422 623 446 602 c 0
 472 581 487 548 492 506 c 0
 493 503 493 500 493 498 c 0
 490 442 475 364 382 326 c 0
 372 322 361 322 351 325 c 0
 316 337 285 354 260 377 c 1
 224 339 182 315 134 305 c 0
 131 305 128 305 125 305 c 0
EndSplineSet
EndChar

StartChar: X
Encoding: 88 88 55
Width: 423
Flags: HW
VStem: 85.2109 86.3896<245.353 340.707>
LayerCount: 2
Fore
SplineSet
401 314 m 0
 392 305 381 301 369 301 c 0
 357 301 346 305 337 314 c 0
 309 342 269 381 222 421 c 1
 203 373 187 323 172 272 c 0
 166 252 148 240 128 240 c 0
 124 240 120 240 116 241 c 0
 92 248 78 273 85 297 c 0
 104 360 124 420 148 478 c 1
 113 503 75 525 37 542 c 0
 14 552 4 579 14 601 c 0
 24 624 50 635 73 625 c 0
 110 608 146 588 184 563 c 1
 200 598 218 632 236 666 c 0
 248 688 275 696 297 684 c 0
 319 672 327 645 315 623 c 0
 295 585 276 547 258 508 c 1
 311 465 358 420 401 378 c 0
 418 360 418 332 401 314 c 0
EndSplineSet
EndChar

StartChar: Y
Encoding: 89 89 56
Width: 350
Flags: HW
VStem: 10.207 89.9609<579.121 710.573> 157.418 89.8193<276.297 477.808> 241.657 85.6104<590.1 708.719>
LayerCount: 2
Fore
SplineSet
324 543 m 0xa0
 305 512 274 495 244 486 c 1
 250 434 251 376 247 312 c 0
 246 288 226 270 202 270 c 0
 201 270 200 270 199 270 c 0
 175 271 156 293 157 318 c 0xc0
 161 377 160 429 154 476 c 1
 121 479 85 488 56 517 c 0
 39 534 26 557 19 584 c 0
 12 609 9 638 10 674 c 0
 11 698 32 718 57 717 c 0
 81 716 101 696 100 671 c 0
 99 625 105 595 120 581 c 0
 132 569 154 564 188 565 c 1
 228 572 242 582 247 590 c 0
 254 601 252 624 242 655 c 0
 234 679 247 704 271 712 c 0
 294 720 320 707 327 683 c 0
 346 624 345 578 324 543 c 0xa0
EndSplineSet
EndChar

StartChar: Z
Encoding: 90 90 57
Width: 390
Flags: HW
HStem: 581 87.6299<15.6808 97.5799>
LayerCount: 2
Fore
SplineSet
354 335 m 0
 334 326 315 317 297 308 c 0
 253 286 216 268 183 268 c 0
 171 268 160 271 149 276 c 0
 146 277 143 279 140 281 c 0
 103 310 87 352 92 407 c 0
 93 409 93 412 93 414 c 1
 91 414 89 414 87 414 c 0
 75 414 65 416 55 420 c 0
 35 429 27 445 24 452 c 0
 10 470 12 496 29 512 c 0
 47 529 76 528 92 510 c 0
 94 508 95 506 97 505 c 0
 102 505 110 507 121 510 c 1
 130 531 141 553 153 576 c 1
 113 572 77 573 45 581 c 0
 21 587 6 611 11 635 c 0
 17 659 41 674 65 669 c 0
 107 659 161 664 230 683 c 0
 248 688 268 682 279 667 c 0
 290 652 291 632 281 616 c 0
 265 592 253 570 242 550 c 1
 260 557 279 565 300 573 c 0
 323 582 350 571 359 548 c 0
 368 524 356 498 333 489 c 0
 275 466 228 449 190 437 c 1
 185 421 183 408 182 398 c 0
 180 376 183 365 188 359 c 0
 191 360 197 361 206 365 c 0
 220 370 237 379 257 389 c 0
 275 397 296 407 318 417 c 0
 340 427 367 417 377 394 c 0
 387 371 377 345 354 335 c 0
EndSplineSet
EndChar

StartChar: bracketleft
Encoding: 91 91 58
Width: 280
Flags: HW
HStem: 282.368 86.8877<130.099 264.665> 604.589 89.8291<110.509 212.552>
VStem: 38.678 89.6934<354.148 559.409>
LayerCount: 2
Fore
SplineSet
84 261 m 0
 72 261 61 265 53 273 c 0
 44 282 39 294 39 306 c 0
 38 420 35 549 11 638 c 0
 8 652 11 666 20 677 c 0
 29 689 42 695 56 694 c 0
 109 693 144 696 173 706 c 0
 196 714 222 701 230 677 c 0
 238 654 225 628 201 620 c 0
 171 610 140 606 111 605 c 1
 123 528 127 439 128 354 c 1
 160 357 188 362 214 369 c 0
 238 376 262 362 269 338 c 0
 275 314 261 289 237 282 c 0
 193 270 144 263 86 261 c 0
 85 261 84 261 84 261 c 0
EndSplineSet
EndChar

StartChar: backslash
Encoding: 92 92 59
Width: 375
Flags: HW
LayerCount: 2
Fore
SplineSet
320 290 m 0
 307 290 294 295 285 306 c 2
 269 326 l 2
 175 444 69 577 29 606 c 0
 8 621 4 649 19 669 c 0
 33 689 61 694 81 679 c 0
 129 645 210 544 340 383 c 2
 355 363 l 2
 371 343 368 315 348 299 c 0
 340 293 330 290 320 290 c 0
EndSplineSet
EndChar

StartChar: bracketright
Encoding: 93 93 60
Width: 289
Flags: HW
HStem: 251.532 89.958<66.7073 177.708> 606.505 89.918<16.6426 155.093>
VStem: 156.403 90.5381<407.056 607.86>
LayerCount: 2
Fore
SplineSet
105 252 m 0
 81 252 61 270 60 295 c 0
 59 319 78 340 103 341 c 0
 129 343 154 346 179 351 c 1
 164 418 157 503 156 608 c 1
 129 605 94 605 53 607 c 0
 28 608 9 629 10 653 c 0
 11 678 32 697 57 696 c 0
 142 693 173 700 185 705 c 0
 199 711 215 709 227 700 c 0
 240 692 247 677 247 662 c 0
 244 516 254 405 277 332 c 0
 281 320 280 308 274 297 c 0
 269 287 259 279 247 275 c 0
 201 262 154 254 107 252 c 0
 106 252 106 252 105 252 c 0
EndSplineSet
EndChar

StartChar: asciicircum
Encoding: 94 94 61
Width: 342
Flags: HW
LayerCount: 2
Fore
SplineSet
55 506 m 0
 47 506 38 508 31 513 c 0
 10 526 4 554 17 575 c 0
 55 634 94 685 133 726 c 0
 149 742 175 744 193 730 c 0
 287 658 313 626 325 608 c 0
 339 587 333 559 312 545 c 0
 291 532 264 538 250 558 c 0
 244 568 225 589 171 634 c 1
 145 603 119 567 93 527 c 0
 85 513 70 506 55 506 c 0
EndSplineSet
EndChar

StartChar: underscore
Encoding: 95 95 62
Width: 268
Flags: HW
HStem: 234.208 90.8652<46.8137 250.12> 257.083 86.8555<15.965 165.598>
VStem: 11.584 245.358
LayerCount: 2
Fore
SplineSet
189 234 m 0xa0
 141 234 79 247 43 257 c 0
 19 264 5 288 12 312 c 0
 18 336 43 350 67 344 c 0x60
 134 326 190 322 202 325 c 0
 226 331 251 316 257 292 c 0
 263 268 248 244 224 238 c 0
 214 235 202 234 189 234 c 0xa0
EndSplineSet
EndChar

StartChar: grave
Encoding: 96 96 63
Width: 216
Flags: HW
HStem: 607.792 21G<156.13 167.652> 680.267 87.9395<16.0236 82.0038>
LayerCount: 2
Fore
SplineSet
161 608 m 0
 151 608 140 611 132 619 c 0
 68 674 48 680 45 680 c 0
 21 686 6 710 11 734 c 0
 16 758 40 773 65 768 c 0
 95 762 132 737 191 687 c 0
 210 671 212 642 195 623 c 0
 187 613 174 608 161 608 c 0
EndSplineSet
EndChar

StartChar: a
Encoding: 97 97 64
Width: 435
Flags: HW
HStem: 270.332 90.6436<103.279 198.255> 280.874 88.792<341.831 419.071> 450.637 89.9053<138.711 232.553>
LayerCount: 2
Fore
SplineSet
135 270 m 0xa0
 94 270 59 283 37 308 c 0
 20 326 3 358 13 409 c 0
 23 458 54 500 96 523 c 0
 117 534 140 540 165 541 c 0
 191 541 217 536 244 525 c 0
 267 515 278 489 268 466 c 0
 266 461 263 457 260 453 c 1
 262 453 264 454 266 454 c 0
 282 454 298 445 306 431 c 0
 321 405 352 376 388 370 c 0
 412 366 429 342 425 318 c 0
 421 293 398 277 373 281 c 0x60
 333 287 299 307 273 331 c 1
 268 325 263 319 257 313 c 0
 233 292 202 279 161 272 c 0
 160 272 159 272 158 272 c 0
 150 271 143 270 135 270 c 0xa0
169 451 m 0
 158 451 148 448 138 443 c 0
 120 433 106 414 101 391 c 0
 100 386 98 374 103 369 c 0
 108 363 124 359 147 361 c 0xa0
 196 369 203 383 220 417 c 0
 223 421 225 425 227 430 c 0
 229 433 231 436 233 439 c 1
 225 437 217 438 209 442 c 0
 195 448 181 451 169 451 c 0
EndSplineSet
EndChar

StartChar: b
Encoding: 98 98 65
Width: 457
Flags: HW
HStem: 460.63 90<229.354 332.147>
LayerCount: 2
Fore
SplineSet
439 444 m 0
 428 476 402 504 366 524 c 0
 333 541 295 551 257 551 c 2
 256 551 l 2
 233 550 210 542 190 527 c 1
 160 597 127 663 94 721 c 0
 82 743 54 751 33 738 c 0
 11 726 4 699 16 677 c 0
 66 589 114 484 156 373 c 1
 149 368 144 361 142 353 c 0
 133 330 146 304 169 296 c 0
 174 294 180 292 185 291 c 1
 191 272 209 261 227 261 c 0
 232 261 237 262 242 263 c 0
 249 265 255 269 260 274 c 1
 272 273 285 272 297 272 c 0
 312 272 326 273 341 276 c 0
 344 276 346 277 349 277 c 0
 393 292 422 315 437 346 c 0
 451 374 451 406 439 444 c 0
356 385 m 0
 353 378 341 370 324 364 c 0
 301 361 279 362 254 366 c 1
 246 390 237 413 228 437 c 1
 236 451 247 460 258 461 c 0
 280 461 304 455 323 444 c 0
 339 436 350 425 353 416 c 0
 357 406 360 392 356 385 c 0
EndSplineSet
EndChar

StartChar: c
Encoding: 99 99 66
Width: 329
Flags: HW
HStem: 287.859 89.9102<118.246 234.904> 474.892 87.916<122.718 236.083>
VStem: 10.0225 89.9805<397.077 452.635>
LayerCount: 2
Fore
SplineSet
171 288 m 0
 128 288 80 309 47 342 c 0
 22 368 9 396 10 426 c 0
 10 459 30 495 65 523 c 0
 85 538 107 550 129 558 c 0
 156 566 183 568 207 563 c 0
 231 557 246 534 241 509 c 0
 236 485 212 470 187 475 c 0
 171 479 146 471 125 455 c 0
 107 442 100 428 100 425 c 0
 100 424 100 424 100 424 c 0
 100 421 103 414 111 406 c 0
 127 390 152 378 171 378 c 0
 194 379 224 385 240 404 c 0
 255 424 284 427 303 411 c 0
 322 396 325 367 310 348 c 0
 295 330 276 315 252 305 c 0
 230 295 204 290 175 288 c 0
 174 288 173 288 173 288 c 0
 172 288 172 288 171 288 c 0
EndSplineSet
EndChar

StartChar: d
Encoding: 100 100 67
Width: 347
Flags: HW
HStem: 262.485 90.001<113.806 228.668> 446.802 90.3721<115.108 200.628>
VStem: 9.99999 90.001<363.106 430.139> 141.413 89.7256<637.838 722.108> 247.229 89.9971<372.496 426.891>
LayerCount: 2
Fore
SplineSet
164 262 m 0
 123 262 87 273 60 293 c 0
 28 317 10 353 10 394 c 0
 10 432 25 465 54 492 c 0
 77 513 107 528 142 535 c 0
 143 535 144 536 145 536 c 0
 164 538 183 539 201 537 c 1
 197 546 192 555 188 564 c 0
 154 634 142 661 141 681 c 0
 140 706 159 727 184 729 c 0
 208 730 229 712 231 688 c 0
 234 676 254 634 269 603 c 0
 310 518 337 459 337 422 c 0
 338 371 318 329 281 300 c 0
 251 276 210 263 165 262 c 0
 165 262 164 262 164 262 c 0
159 447 m 0
 131 441 100 423 100 394 c 0
 100 381 104 372 113 365 c 0
 124 357 142 353 163 352 c 0
 195 353 248 363 247 421 c 0
 247 421 247 421 247 421 c 0
 247 422 247 424 246 427 c 0
 238 429 230 433 224 439 c 0
 219 443 194 451 159 447 c 0
247 421 m 1
 247 421 l 1
 247 421 l 1
223 440 m 1
 223 440 223 440 223 440 c 1
 223 440 223 440 223 440 c 1
231 686 m 1
 231 686 231 686 231 686 c 1
 231 686 231 686 231 686 c 1
EndSplineSet
EndChar

StartChar: e
Encoding: 101 101 68
Width: 368
Flags: HW
HStem: 253.953 90<122.084 293.212> 402.881 89.9971<177.322 216.678> 495.941 89.249<177.51 217.226>
LayerCount: 2
Fore
SplineSet
181 254 m 0
 136 254 93 270 61 299 c 0
 29 328 10 368 10 410 c 0
 10 447 25 486 51 517 c 0
 82 553 126 576 178 585 c 0
 180 585 181 586 183 586 c 0
 215 587 240 584 259 575 c 0
 285 564 303 544 309 519 c 0
 309 515 310 511 310 507 c 0
 309 490 307 464 292 442 c 0
 280 424 255 402 208 403 c 2
 108 404 l 2
 106 404 103 404 100 404 c 1
 104 371 139 344 181 344 c 0
 230 344 267 351 291 365 c 0
 313 377 340 369 352 348 c 0
 365 326 357 299 335 286 c 0
 297 265 246 254 181 254 c 0
177 493 m 1
 209 493 l 2
 209 493 209 493 209 493 c 0
 214 493 216 493 218 494 c 0
 218 494 218 494 218 494 c 1
 212 495 204 496 190 496 c 0
 186 495 181 494 177 493 c 1
EndSplineSet
EndChar

StartChar: f
Encoding: 102 102 69
Width: 343
Flags: HW
HStem: 399.75 102.44<253.616 315.743>
LayerCount: 2
Fore
SplineSet
300 488 m 0
 269 496 234 501 196 502 c 1
 174 536 152 565 135 587 c 0
 134 588 133 589 133 590 c 1
 135 590 137 590 139 590 c 0
 186 596 209 617 220 633 c 0
 230 647 239 670 231 703 c 0
 231 705 230 707 230 709 c 0
 206 767 156 791 94 773 c 0
 94 773 93 773 93 773 c 0
 45 758 25 726 16 703 c 0
 8 678 8 650 17 619 c 0
 25 590 39 566 49 551 c 0
 50 551 50 550 50 550 c 0
 54 544 59 539 63 532 c 0
 72 521 81 509 91 495 c 1
 73 488 61 469 63 448 c 0
 66 423 89 406 114 409 c 0
 125 410 136 411 147 412 c 1
 164 384 179 355 192 324 c 0
 199 307 216 296 234 296 c 0
 240 296 245 297 251 300 c 0
 274 309 285 335 275 358 c 0
 269 375 261 391 253 406 c 1
 262 405 270 403 277 401 c 0
 281 400 285 400 288 400 c 0
 308 400 327 413 332 433 c 0
 338 458 324 482 300 488 c 0
101 673 m 0
 102 676 104 682 120 687 c 0
 130 690 136 689 138 688 c 0
 139 688 140 686 142 683 c 1
 139 682 135 681 128 680 c 0
 117 678 107 673 100 665 c 1
 100 668 101 671 101 673 c 0
EndSplineSet
EndChar

StartChar: g
Encoding: 103 103 70
Width: 423
Flags: HW
HStem: 272.679 89.998<100.541 212.436> 447.433 90.0029<143.181 226.03>
LayerCount: 2
Fore
SplineSet
343 -94 m 0
 303 -94 242 -75 198 -56 c 0
 123 -23 87 13 87 54 c 0
 87 81 107 102 121 116 c 0
 135 128 154 142 175 154 c 0
 195 167 243 193 286 199 c 1
 262 309 l 1
 229 286 187 273 142 273 c 0
 55 273 10 328 10 383 c 0
 10 424 49 464 71 484 c 0
 94 504 139 537 186 537 c 0
 231 537 269 518 296 483 c 0
 316 457 330 423 338 382 c 2
 387 160 l 1
 429 4 414 -44 395 -68 c 0
 382 -85 364 -94 343 -94 c 0
186 53 m 1
 197 45 217 34 248 21 c 0
 277 9 305 2 324 -2 c 1
 324 15 322 48 306 111 c 0
 305 110 304 110 302 110 c 0
 293 110 267 103 232 84 c 0
 211 72 196 61 186 53 c 1
100 381 m 1
 103 370 119 363 142 363 c 0
 179 363 214 378 228 401 c 0
 230 405 232 408 235 411 c 0
 218 447 196 447 186 447 c 0
 179 447 160 440 137 421 c 0
 116 404 104 388 100 381 c 1
EndSplineSet
EndChar

StartChar: h
Encoding: 104 104 71
Width: 479
Flags: HW
HStem: 426.283 90<266.91 330.513>
LayerCount: 2
Fore
SplineSet
424 305 m 0
 408 305 392 313 384 329 c 0
 347 400 311 426 296 426 c 0
 296 426 296 426 295 426 c 0
 295 426 295 426 295 426 c 0
 291 426 283 426 270 409 c 0
 258 393 246 369 234 334 c 0
 227 316 210 304 190 305 c 0
 171 305 154 318 148 337 c 0
 110 468 74 546 20 614 c 0
 4 634 8 662 27 678 c 0
 47 693 75 690 90 670 c 0
 135 614 169 551 201 467 c 1
 212 481 224 492 238 500 c 0
 255 511 274 516 294 516 c 0
 375 517 435 425 464 370 c 0
 476 348 467 321 445 310 c 0
 438 306 431 305 424 305 c 0
EndSplineSet
EndChar

StartChar: i
Encoding: 105 105 72
Width: 315
Flags: HW
HStem: 614.99 87.7607<55.9353 140.757> 623.263 90<16.5146 101.965>
VStem: 10 134.925<629.778 699.31>
LayerCount: 2
Fore
SplineSet
170 295 m 0x20
 158 295 136 299 119 326 c 0
 112 336 107 350 102 368 c 0
 94 395 86 436 75 503 c 0
 71 527 88 550 112 554 c 0
 137 558 160 541 164 517 c 0
 171 470 177 437 183 414 c 0
 185 403 187 395 189 389 c 1
 198 393 209 402 230 421 c 0
 249 438 277 437 294 418 c 0
 311 400 309 372 291 355 c 0
 251 319 222 295 170 295 c 0x20
102 615 m 0xa0
 98 615 93 616 88 617 c 0
 75 621 65 623 55 623 c 0
 30 623 10 643 10 668 c 0
 10 693 30 713 55 713 c 0x60
 75 713 94 710 116 703 c 0
 140 695 153 670 145 646 c 0
 139 627 121 615 102 615 c 0xa0
EndSplineSet
EndChar

StartChar: j
Encoding: 106 106 73
Width: 326
Flags: HW
HStem: -64 90<111.546 213.166> 136.662 89.998<111.671 177.824> 605.82 21G<88.6079 100.164>
VStem: 10 90.001<39.3049 126.449> 85.1143 88.458<429.161 536.792>
LayerCount: 2
Fore
SplineSet
168 -64 m 0xe8
 128 -64 90 -51 61 -28 c 0
 28 -2 10 35 10 73 c 0xf0
 10 135 37 172 59 192 c 0
 85 214 119 227 152 227 c 0
 156 227 159 227 162 227 c 0
 167 227 173 227 178 227 c 1
 177 228 177 230 176 232 c 0
 139 321 98 421 85 490 c 0
 81 514 97 538 121 542 c 0
 145 547 169 531 174 506 c 0
 185 447 226 347 259 266 c 0
 282 209 303 160 311 129 c 0
 312 128 312 127 312 127 c 0
 323 77 313 28 284 -9 c 0
 256 -44 214 -64 168 -64 c 0xe8
170 137 m 0
 167 137 165 137 162 137 c 0
 159 137 156 137 152 137 c 0
 144 137 100 134 100 73 c 0
 100 48 132 26 168 26 c 0
 192 26 206 37 213 47 c 0
 225 62 229 83 224 105 c 0
 223 112 220 119 217 128 c 1
 209 128 201 131 194 136 c 0
 189 137 179 137 170 137 c 0
190 139 m 1
 190 139 190 139 190 139 c 1
 190 139 190 139 190 139 c 1
93 606 m 0
 84 606 75 608 68 614 c 2
 42 631 l 2
 21 645 16 673 30 694 c 0
 44 714 72 719 93 705 c 2
 118 688 l 2
 139 674 144 646 130 626 c 0
 122 613 107 606 93 606 c 0
EndSplineSet
EndChar

StartChar: k
Encoding: 107 107 74
Width: 468
Flags: HW
LayerCount: 2
Fore
SplineSet
446 326 m 0
 423 349 385 366 326 379 c 1
 336 396 345 412 352 427 c 0
 371 467 378 496 375 519 c 0
 372 536 358 551 341 555 c 0
 296 566 238 568 166 559 c 1
 141 631 116 686 93 723 c 0
 79 743 51 749 30 736 c 0
 10 722 4 694 17 673 c 0
 56 613 104 479 144 314 c 0
 149 293 168 280 188 280 c 0
 192 280 195 280 199 281 c 0
 213 284 224 295 230 307 c 1
 234 305 239 303 245 302 c 0
 347 288 375 270 382 262 c 0
 390 253 402 249 414 249 c 0
 425 249 437 253 445 262 c 0
 463 279 463 308 446 326 c 0
220 381 m 1
 212 413 203 443 195 472 c 1
 225 475 252 475 275 474 c 1
 265 452 248 421 220 381 c 1
EndSplineSet
EndChar

StartChar: l
Encoding: 108 108 75
Width: 299
Flags: HW
VStem: 10.3147 89.3789<484.479 678.592>
LayerCount: 2
Fore
SplineSet
141 268 m 0
 133 268 124 270 115 272 c 0
 112 273 109 274 106 275 c 0
 77 290 60 326 43 410 c 0
 33 463 22 535 10 635 c 0
 7 660 25 682 50 685 c 0
 74 688 97 670 100 645 c 0
 110 559 119 493 128 445 c 0
 137 396 145 372 150 360 c 1
 159 362 173 367 192 375 c 0
 203 380 215 385 229 390 c 0
 252 399 278 387 287 364 c 0
 296 341 284 315 261 306 c 0
 248 301 236 296 226 292 c 0
 194 279 168 268 141 268 c 0
EndSplineSet
EndChar

StartChar: m
Encoding: 109 109 76
Width: 489
Flags: HW
VStem: 69.248 88.2334<288.29 387.676>
LayerCount: 2
Fore
SplineSet
434 275 m 0
 414 275 395 289 390 310 c 0
 388 320 386 330 384 340 c 0
 377 370 371 401 363 427 c 0
 362 432 360 436 359 439 c 1
 355 434 351 429 347 423 c 0
 333 404 318 383 297 363 c 0
 287 353 272 349 258 351 c 0
 244 353 232 363 225 376 c 0
 217 393 206 412 194 429 c 1
 192 424 190 419 188 412 c 0
 177 383 166 346 157 314 c 0
 152 293 131 280 109 282 c 0
 88 284 71 302 69 324 c 0
 66 374 58 444 24 475 c 0
 6 492 5 521 22 539 c 0
 39 557 67 558 86 541 c 0
 101 527 114 509 123 490 c 1
 127 498 132 505 136 511 c 0
 156 538 179 543 194 543 c 0
 201 542 208 540 214 536 c 0
 234 525 255 499 272 474 c 1
 273 474 274 475 274 476 c 0
 295 504 316 533 348 549 c 0
 360 555 374 555 386 549 c 0
 419 534 435 496 446 464 c 0
 456 432 464 395 472 359 c 0
 474 349 476 339 478 330 c 0
 484 305 468 281 444 276 c 0
 441 275 437 275 434 275 c 0
168 459 m 1
 168 459 168 459 168 459 c 1
 168 459 168 459 168 459 c 1
EndSplineSet
EndChar

StartChar: n
Encoding: 110 110 77
Width: 371
Flags: HW
HStem: 255.38 297.963
VStem: 70.2051 88.5576<261.943 378.396> 271.89 89.3691<280.777 421.675>
LayerCount: 2
Fore
SplineSet
114 255 m 0
 93 255 75 270 70 291 c 0
 63 324 54 363 45 393 c 0
 33 431 25 440 24 441 c 0
 6 458 5 487 23 504 c 0
 40 522 68 523 86 506 c 0
 98 494 108 478 118 456 c 1
 120 460 122 464 125 468 c 0
 139 491 156 509 173 524 c 0
 194 540 215 550 238 553 c 0
 240 554 242 554 245 554 c 0
 260 554 284 548 304 519 c 0
 314 505 323 487 331 465 c 0
 344 427 355 377 361 325 c 0
 364 300 347 278 322 275 c 0
 320 274 318 274 317 274 c 0
 294 274 275 291 272 314 c 0
 267 351 260 388 251 418 c 0
 245 438 240 450 236 458 c 1
 224 451 212 437 201 420 c 0
 180 387 165 343 159 294 c 0
 156 273 138 256 116 255 c 0
 115 255 115 255 114 255 c 0
EndSplineSet
EndChar

StartChar: o
Encoding: 111 111 78
Width: 363
Flags: HW
HStem: 261.448 90.001<120.898 241.239> 546 20G<159.615 184.603 215.779 232.05>
VStem: 10 89.999<373.118 450.758> 263.99 90<373.888 445.672>
LayerCount: 2
Fore
SplineSet
179 261 m 0
 140 261 99 275 68 300 c 0
 31 329 10 370 10 414 c 0
 10 453 31 492 67 523 c 0
 100 550 141 566 179 566 c 0
 191 566 202 561 210 553 c 0
 211 554 211 554 212 554 c 0
 214 554 215 554 216 554 c 0
 248 554 282 536 310 506 c 0
 338 475 354 439 354 405 c 0
 354 366 332 328 294 300 c 0
 261 276 219 261 179 261 c 0
138 463 m 1
 133 460 129 457 125 453 c 0
 109 441 100 426 100 414 c 0
 100 375 146 351 179 351 c 0
 200 351 223 359 241 373 c 0
 255 383 264 395 264 405 c 0
 264 415 257 430 245 443 c 0
 235 455 225 461 219 463 c 0
 218 462 216 460 213 456 c 0
 198 437 169 433 150 449 c 0
 145 453 141 458 138 463 c 1
216 464 m 1
 216 464 216 464 216 464 c 1
EndSplineSet
EndChar

StartChar: p
Encoding: 112 112 79
Width: 362
Flags: HW
HStem: 255.37 90<158.244 204.521 207.761 243.375> 467.57 90<119.237 239.168> 544.36 21G<80.2109 95.5059>
VStem: 262.491 90<364.49 444.444>
LayerCount: 2
Fore
SplineSet
147 558 m 0xd0
 125 558 105 553 86 544 c 1xb0
 74 556 55 561 38 554 c 0
 15 545 4 519 13 495 c 0
 43 420 61 301 79 174 c 0
 83 147 87 118 92 90 c 0
 95 68 114 52 136 52 c 0
 138 52 141 52 143 53 c 0
 167 56 184 79 181 104 c 0
 176 132 172 160 168 187 c 0
 165 211 161 235 158 258 c 1
 171 256 186 255 205 255 c 0
 205 255 206 255 207 255 c 2
 208 255 l 2
 240 255 275 272 304 301 c 0
 335 331 352 369 352 405 c 0
 352 479 298 558 147 558 c 0xd0
241 365 m 0
 228 351 214 345 208 345 c 2
 207 345 l 2
 206 345 205 345 204 345 c 0
 162 345 151 352 140 362 c 1
 134 397 127 429 119 460 c 1
 123 462 132 468 147 468 c 0xd0
 199 468 227 456 241 446 c 0
 256 436 262 423 262 405 c 0
 262 394 254 378 241 365 c 0
EndSplineSet
EndChar

StartChar: q
Encoding: 113 113 80
Width: 436
Flags: HW
HStem: -64 89.999<247.712 331.001> 114.147 89.999<252.075 323.092> 267.106 90<102.019 165.865> 516.012 20G<167.397 189.766 204.994 217.716>
VStem: 10.0039 90<371.223 411.243> 154.164 90.001<32.2747 111.999> 169.696 98.8975<357.246 438.344> 336.409 90<30.4739 100.87>
LayerCount: 2
Fore
SplineSet
296 -64 m 0xfb
 257 -64 224 -53 199 -34 c 0
 179 -17 154 14 154 69 c 0xfd
 154 107 158 151 161 198 c 0
 163 221 165 244 166 268 c 1
 161 267 156 267 151 267 c 0
 134 267 75 270 38 308 c 0
 19 327 10 350 10 376 c 0
 10 409 25 442 55 471 c 0
 93 510 147 536 188 536 c 0
 191 536 194 536 197 535 c 0
 200 536 203 536 207 536 c 0
 229 536 248 520 251 498 c 0
 254 477 256 456 258 434 c 1
 265 410 269 394 269 381 c 0
 269 366 265 351 259 337 c 1
 258 291 255 245 252 202 c 1
 261 203 271 204 280 204 c 0
 280 204 280 204 280 204 c 0
 315 204 352 189 380 163 c 0
 410 136 426 102 426 68 c 0
 426 34 414 1 391 -23 c 0
 366 -50 332 -64 296 -64 c 0xfb
245 106 m 1
 245 93 244 80 244 69 c 0
 244 54 244 26 296 26 c 0
 322 26 336 47 336 68 c 0
 336 85 309 114 280 114 c 0
 265 114 252 109 245 106 c 1
163 439 m 1
 149 433 133 422 119 408 c 0
 105 394 100 382 100 377 c 0
 100 376 100 376 100 376 c 0
 100 374 100 373 102 371 c 0
 109 364 128 357 151 357 c 0
 159 357 165 360 170 364 c 1xfb
 170 382 169 401 168 419 c 0
 167 426 165 433 163 439 c 1
EndSplineSet
EndChar

StartChar: r
Encoding: 114 114 81
Width: 252
Flags: HW
HStem: 450.788 80.1357<149.678 238.114>
VStem: 60.2236 88.2158<336.471 406.385>
LayerCount: 2
Fore
SplineSet
104 330 m 0
 84 330 66 343 60 363 c 0
 53 390 37 410 26 420 c 0
 7 435 5 464 20 483 c 0
 33 498 53 503 71 496 c 1
 77 509 86 519 99 528 c 0
 101 530 104 531 107 533 c 0
 132 543 185 548 218 531 c 0
 240 519 249 492 237 470 c 0
 226 448 199 440 177 451 c 0
 172 453 159 452 149 451 c 0
 149 448 148 444 147 437 c 0
 146 423 147 405 148 378 c 0
 150 355 134 335 111 331 c 0
 109 330 106 330 104 330 c 0
177 451 m 1
 177 451 l 1
EndSplineSet
EndChar

StartChar: s
Encoding: 115 115 82
Width: 297
Flags: HW
HStem: 227.501 90<69.9141 186.119>
VStem: 9.99999 277.858
LayerCount: 2
Fore
SplineSet
145 228 m 0
 102 228 61 230 31 260 c 0
 14 277 14 306 31 323 c 0
 49 341 77 341 95 324 c 0
 99 320 116 318 145 318 c 0
 161 318 176 320 187 323 c 1
 183 326 178 329 172 333 c 0
 155 343 133 353 113 363 c 0
 91 373 71 383 55 393 c 0
 43 400 10 420 10 456 c 0
 10 466 13 486 35 502 c 0
 42 508 52 513 64 518 c 0
 83 526 107 532 123 535 c 0
 148 540 172 525 177 500 c 0
 182 477 167 454 144 448 c 1
 147 446 149 445 151 444 c 0
 179 431 208 417 232 401 c 0
 246 392 288 364 288 320 c 0
 288 303 281 261 222 240 c 0
 191 229 158 228 145 228 c 0
EndSplineSet
EndChar

StartChar: t
Encoding: 116 116 83
Width: 343
Flags: HW
HStem: 250.72 90<146.835 230.733> 385.91 95.4102<20.3432 55.167> 436.95 89<152.728 279.336>
VStem: 57.3174 89.21<342.782 385.91 510.34 635.834> 64.7275 89.8193<511.98 641.283>
LayerCount: 2
Fore
SplineSet
326 335 m 0xb0
 298 294 247 251 186 251 c 0
 156 251 131 257 111 269 c 0
 84 285 66 311 58 346 c 0
 58 348 57 349 57 351 c 0xb0
 56 362 55 374 55 386 c 1
 55 386 l 2
 38 386 21 396 14 413 c 0
 4 436 14 462 37 472 c 0
 44 475 52 478 59 481 c 1
 60 488 60 495 61 501 c 0
 64 539 66 575 65 600 c 0
 63 625 82 646 107 648 c 0
 132 649 153 631 155 606 c 0xc8
 156 578 154 545 152 510 c 1
 177 516 204 521 234 526 c 0
 259 530 282 513 285 488 c 0
 289 464 272 441 247 437 c 0
 212 432 179 425 145 416 c 1
 145 397 145 379 147 363 c 0
 150 349 155 341 186 341 c 0
 207 341 234 359 251 385 c 0
 265 406 293 411 314 397 c 0
 334 383 340 355 326 335 c 0xb0
EndSplineSet
EndChar

StartChar: u
Encoding: 117 117 84
Width: 286
Flags: HW
HStem: 256.109 90<132.56 178.23>
VStem: 10.2061 89.5938<388.779 510.976> 186.255 90<350.219 463.802>
LayerCount: 2
Fore
SplineSet
158 256 m 0
 134 256 111 265 91 281 c 0
 75 293 60 311 48 333 c 0
 29 369 15 417 10 468 c 0
 8 493 26 515 51 517 c 0
 75 520 97 502 100 477 c 0
 108 396 139 346 158 346 c 0
 176 346 186 381 186 415 c 0
 186 434 174 458 168 464 c 0
 149 479 146 507 161 527 c 0
 176 546 204 550 224 535 c 0
 253 512 276 459 276 415 c 0
 276 320 229 256 158 256 c 0
169 464 m 1
 169 464 169 464 169 464 c 1
 169 464 169 464 169 464 c 1
EndSplineSet
EndChar

StartChar: v
Encoding: 118 118 85
Width: 288
Flags: HW
HStem: 282.562 279.857<194.744 214.71>
VStem: 188.229 90<402.959 555.904>
LayerCount: 2
Fore
SplineSet
175 283 m 0
 164 283 154 286 145 294 c 0
 121 315 36 416 14 469 c 0
 4 492 14 518 37 528 c 0
 60 538 87 527 96 505 c 0
 106 481 142 434 170 400 c 1
 182 429 188 469 188 517 c 0
 188 542 208 562 233 562 c 0
 258 562 278 542 278 517 c 0
 278 414 255 342 206 295 c 0
 197 287 186 283 175 283 c 0
EndSplineSet
EndChar

StartChar: w
Encoding: 119 119 86
Width: 380
Flags: HW
HStem: 292.843 89.999<236.676 275.989>
VStem: 10.292 89.7881<367.293 514.063> 280.582 90<385.891 457.595>
LayerCount: 2
Fore
SplineSet
83 255 m 0
 68 255 54 260 43 270 c 0
 40 272 37 275 35 278 c 0
 15 306 11 362 10 385 c 0
 9 414 10 471 32 513 c 0
 43 535 70 544 92 533 c 0
 114 522 123 495 112 473 c 0
 104 456 99 426 100 393 c 0
 100 383 101 374 102 366 c 1
 103 368 105 370 107 372 c 0
 120 391 130 414 133 436 c 0
 136 456 152 472 173 474 c 0
 193 476 213 464 220 444 c 0
 238 393 248 383 259 383 c 0
 271 383 273 386 274 388 c 0
 276 390 281 398 281 418 c 0
 281 439 261 461 245 466 c 0
 221 473 207 498 214 522 c 0
 221 546 245 559 269 553 c 0
 296 545 321 528 340 504 c 0
 360 478 371 448 371 418 c 0
 371 341 328 293 259 293 c 0
 238 293 209 299 183 325 c 1
 162 292 134 269 110 260 c 0
 101 257 92 255 83 255 c 0
110 328 m 1
 110 328 110 328 110 328 c 1
 110 328 110 328 110 328 c 1
EndSplineSet
EndChar

StartChar: x
Encoding: 120 120 87
Width: 377
Flags: HW
LayerCount: 2
Fore
SplineSet
349 317 m 0
 341 311 331 308 322 308 c 0
 308 308 295 315 286 327 c 0
 269 350 249 373 227 396 c 1
 214 370 200 342 187 316 c 0
 183 307 179 299 175 291 c 0
 167 275 151 266 134 266 c 0
 128 266 121 267 115 270 c 0
 92 281 83 308 94 330 c 0
 98 339 102 347 106 355 c 0
 124 392 142 428 159 461 c 1
 149 471 139 480 130 487 c 1
 126 484 123 481 119 477 c 0
 109 466 101 453 99 443 c 0
 95 419 71 403 47 407 c 0
 22 412 6 435 11 460 c 0
 16 487 31 515 54 539 c 0
 67 553 94 577 126 584 c 0
 139 586 152 584 162 576 c 0
 174 567 188 556 204 542 c 1
 222 571 239 595 255 612 c 0
 273 629 301 629 319 612 c 0
 336 594 336 566 319 548 c 0
 305 535 289 510 271 479 c 1
 303 448 335 413 359 380 c 0
 373 360 369 332 349 317 c 0
EndSplineSet
EndChar

StartChar: y
Encoding: 121 121 88
Width: 379
Flags: HW
HStem: -195.434 88.75<168.803 278.65> 284.033 88.3193<104.092 179.149>
VStem: 10.0146 90.0781<375.295 529.427>
LayerCount: 2
Fore
SplineSet
275 -198 m 0
 264 -198 254 -197 244 -196 c 0
 239 -196 234 -196 229 -195 c 0
 228 -195 228 -195 227 -195 c 0
 176 -190 137 -176 109 -153 c 0
 85 -133 70 -107 63 -73 c 0
 62 -70 62 -67 62 -64 c 0
 62 14 157 98 242 122 c 1
 233 185 226 249 221 313 c 1
 194 295 157 284 107 284 c 0
 77 284 51 299 33 327 c 0
 12 361 10 406 10 430 c 0
 10 467 18 502 30 527 c 0
 41 549 68 558 90 547 c 0
 113 535 122 508 110 486 c 0
 105 475 99 450 100 421 c 0
 101 395 107 380 110 374 c 1
 157 375 174 388 183 398 c 0
 199 417 208 450 215 484 c 0
 219 506 240 522 263 520 c 0
 286 518 303 498 304 475 c 0
 305 397 312 191 361 -29 c 0
 361 -30 361 -30 362 -31 c 0
 372 -83 377 -137 348 -171 c 0
 328 -193 301 -198 275 -198 c 0
235 -106 m 0
 241 -106 246 -106 250 -107 c 0
 259 -107 272 -108 279 -108 c 1
 280 -100 280 -83 273 -49 c 0
 267 -22 262 5 257 33 c 1
 234 24 210 9 189 -9 c 0
 165 -31 155 -50 153 -61 c 1
 155 -71 160 -78 167 -84 c 0
 180 -95 204 -102 235 -106 c 0
111 372 m 1
 112 372 l 1
 111 372 l 1
EndSplineSet
EndChar

StartChar: z
Encoding: 122 122 89
Width: 410
Flags: HW
HStem: -111.329 89.999<141.504 288.188> 75.7451 90<159.181 305.941> 469.095 89.6787<16.2358 142.201>
VStem: 36.3945 90.002<-4.35746 45.4341>
LayerCount: 2
Fore
SplineSet
205 -111 m 0
 170 -111 130 -100 99 -80 c 0
 59 -54 36 -18 36 21 c 0
 36 58 61 96 105 126 c 0
 142 151 184 166 219 166 c 0
 247 166 277 166 307 158 c 1
 303 175 298 193 292 209 c 0
 279 242 264 261 255 268 c 0
 221 288 174 308 112 297 c 0
 95 295 79 301 69 315 c 0
 59 328 57 346 64 361 c 0
 76 386 103 420 134 458 c 0
 137 463 141 467 145 472 c 1
 112 468 81 467 51 469 c 0
 26 471 8 493 10 518 c 0
 12 543 34 561 59 559 c 0
 111 554 172 564 231 586 c 0
 247 592 264 589 277 577 c 0
 289 566 295 549 290 533 c 0
 282 501 252 462 204 402 c 0
 200 397 196 392 192 387 c 1
 238 379 274 361 301 345 c 0
 302 345 303 344 304 344 c 0
 340 320 363 275 376 242 c 0
 392 202 401 157 401 120 c 0
 401 80 398 49 393 23 c 0
 387 -8 377 -33 361 -53 c 0
 321 -105 257 -111 205 -111 c 0
126 21 m 0
 127 14 135 4 147 -4 c 0
 164 -15 187 -21 205 -21 c 0
 264 -21 282 -9 290 2 c 0
 299 13 305 32 308 60 c 0
 306 61 304 62 303 63 c 0
 286 75 257 76 219 76 c 0
 206 76 182 69 158 53 c 0
 136 39 127 25 126 21 c 0
EndSplineSet
EndChar

StartChar: braceleft
Encoding: 123 123 90
Width: 285
Flags: HW
HStem: 160.092 90.5508<157.073 253.235>
VStem: 23.2623 90.0059<547.288 585.745>
LayerCount: 2
Fore
SplineSet
164 160 m 0
 139 160 113 167 91 188 c 0
 89 191 86 194 84 197 c 0
 65 228 66 267 68 288 c 0
 70 307 74 326 81 342 c 1
 72 345 62 347 52 348 c 0
 31 349 14 364 11 384 c 0
 7 404 17 425 36 433 c 0
 60 444 79 459 90 469 c 1
 79 476 66 485 54 497 c 0
 34 518 23 543 23 569 c 0
 23 591 31 622 68 650 c 0
 88 665 116 679 151 690 c 0
 175 698 200 685 208 662 c 0
 216 638 203 613 180 605 c 0
 123 586 114 571 113 569 c 0
 114 560 134 547 145 540 c 0
 162 530 177 520 185 502 c 0
 185 501 186 500 186 498 c 0
 193 478 192 446 154 407 c 1
 166 399 174 389 178 378 c 0
 186 360 184 340 172 324 c 0
 165 313 159 296 157 279 c 0
 156 266 157 256 159 251 c 1
 171 248 195 255 215 263 c 0
 239 271 265 259 273 236 c 0
 281 213 269 187 246 178 c 0
 226 171 195 160 164 160 c 0
EndSplineSet
EndChar

StartChar: bar
Encoding: 124 124 91
Width: 130
Flags: HW
VStem: 10.0233 89.9541<341.285 634.677>
LayerCount: 2
Fore
SplineSet
75 234 m 0
 53 234 33 252 31 275 c 0
 21 376 13 501 10 595 c 0
 9 620 29 641 54 641 c 0
 78 642 99 623 100 598 c 0
 103 506 111 382 120 283 c 0
 123 259 105 237 80 234 c 0
 78 234 77 234 75 234 c 0
EndSplineSet
EndChar

StartChar: braceright
Encoding: 125 125 92
Width: 242
Flags: HW
HStem: 168.428 90<71.8144 138.123> 606.652 89.4336<18.9497 111.073>
VStem: 11.0562 200.56<609.634 674.498> 65.2603 166.245<191.202 251.855>
LayerCount: 2
Fore
SplineSet
110 168 m 0xd0
 85 168 65 189 65 213 c 0xd0
 65 238 85 258 110 258 c 2
 111 258 l 2
 122 258 132 259 139 259 c 1
 131 298 109 350 90 373 c 0
 78 388 77 409 88 426 c 0
 90 429 92 432 94 434 c 1
 91 436 88 437 86 439 c 0
 69 449 61 468 65 486 c 0
 72 525 89 561 103 590 c 0
 106 595 108 601 111 607 c 1
 97 607 80 607 65 604 c 0
 40 598 16 614 11 638 c 0
 6 662 21 686 45 692 c 0
 76 698 107 697 122 696 c 0
 170 692 186 679 192 675 c 0
 204 665 212 650 212 634 c 0xe0
 212 608 199 582 184 551 c 0
 178 537 171 523 165 507 c 1
 179 504 193 500 208 493 c 0
 228 482 237 458 229 436 c 0
 219 412 200 400 185 391 c 1
 210 345 232 282 232 237 c 0
 232 216 221 197 202 185 c 0
 192 179 181 175 166 172 c 0
 146 169 125 168 111 168 c 2
 110 168 l 2
 110 168 110 168 110 168 c 0xd0
EndSplineSet
EndChar

